<svg width="131" height="136" viewBox="0 0 131 136" fill="none" xmlns="http://www.w3.org/2000/svg"><path d="M62.456 120.22c30.6 0 55.405-24.805 55.405-55.405S93.055 9.41 62.456 9.41c-30.6 0-55.405 24.806-55.405 55.405 0 30.6 24.805 55.405 55.405 55.405Z" fill="#F2FAFD"/><path d="M70.273 58.41s4.494 22.225-10.957 23.21c-15.39.984-35.275-9.296-30.843-20.685 4.433-11.389 12.251-9.604 16.253-15.267 3.447-4.864 0-14.098 0-14.098l22.223 9.788s-3.324 12.928 3.325 17.053Z" fill="url(#paint0_linear_13135_31969)"/><path d="M113.122 73.616 99.641 69.8c-.493-.123-1.355-.923-1.17-1.415l10.157-26.41c.185-.493.739-.8 1.293-.677l13.174 3.324c.493.123 1.108 1.17.924 1.662l-9.604 26.594c-.246.616-.8.924-1.293.74Z" fill="url(#paint1_linear_13135_31969)"/><path d="M112.445 72.816 98.963 69a.9.9 0 0 1-.616-1.17l9.604-26.594c.184-.493.738-.8 1.292-.678l13.482 3.817a.9.9 0 0 1 .616 1.17l-9.604 26.594c-.184.493-.8.8-1.292.677Z" fill="#193963"/><path d="M107.337 69.368c.185-.554-.062-1.108-.616-1.231-.554-.124-1.108.123-1.293.677-.185.554.061 1.108.616 1.232.554.123 1.108-.185 1.293-.678Z" fill="url(#paint2_linear_13135_31969)"/><path d="M116.016 43.269c.061-.185 0-.37-.185-.37-.185-.061-.369.062-.431.185-.062.185 0 .37.185.37.185.061.369 0 .431-.185Z" fill="url(#paint3_linear_13135_31969)"/><path d="m112.935 69.124-12.066-3.448a.666.666 0 0 1-.431-.862l7.942-21.977c.123-.37.554-.616.923-.493l12.066 3.448c.37.123.554.492.431.862l-7.941 21.977c-.123.431-.493.616-.924.493Z" fill="#fff"/><path d="m109.859 52.07-2.401-.677c-.246-.062-.492.061-.554.307l-.431 1.109c-.062.246.062.43.246.492l2.401.677c.246.062.493-.061.554-.308l.431-1.108c.123-.246 0-.43-.246-.492Z" fill="#EAEDF7"/><path d="m108.998 54.472-2.401-.677c-.247-.062-.493.061-.554.308l-.431 1.108c-.062.246.061.43.246.492l2.401.677c.246.062.492-.061.554-.307l.431-1.108c.123-.247 0-.431-.246-.493Z" fill="#EAEDF7"/><path d="m113.429 53.056-2.401-.677c-.246-.062-.492.062-.554.308l-.431 1.108c-.061.246.062.43.247.492l2.4.678c.247.061.493-.062.555-.308l.43-1.108c.124-.185 0-.431-.246-.493Z" fill="#EAEDF7"/><path d="m112.567 55.459-2.401-.678c-.246-.061-.492.062-.554.308l-.369 1.108c-.062.246.061.431.246.493l2.401.677c.246.061.492-.062.554-.308l.431-1.108c.061-.185-.062-.43-.308-.492Z" fill="#3AB7B1"/><path d="m116.937 54.04-2.401-.677c-.246-.061-.492.062-.554.308l-.431 1.108c-.061.246.062.431.246.493l2.401.677c.247.062.493-.062.554-.308l.431-1.108c.123-.185 0-.43-.246-.492Z" fill="#EAEDF7"/><path d="m116.076 56.44-2.401-.676c-.246-.062-.493.061-.554.307l-.431 1.109c-.062.246.061.43.246.492l2.401.677c.246.062.492-.061.554-.307l.431-1.109c.123-.184 0-.43-.246-.492Z" fill="#EAEDF7"/><path d="m121.31 45.608-11.696-3.325a.976.976 0 0 0-1.17.616l-.862 2.34 13.42 3.816.862-2.34c.123-.492-.123-.984-.554-1.107Z" fill="#0596DE"/><path d="m112.876 62.536-7.819-2.216a.587.587 0 0 0-.677.37l-.431 1.23c-.123.247.062.555.308.616l7.818 2.216a.589.589 0 0 0 .678-.369l.43-1.231c.124-.246-.061-.554-.307-.616Z" fill="#0596DE"/><path d="M27.86 85.437s-6.28-22.532.492-29.488c6.772-6.956 12.066-5.11 12.066-5.11s-6.156 6.403-10.589 14.59c-3.386 6.28 1.97 19.823-1.97 20.008Z" fill="url(#paint4_linear_13135_31969)"/><path d="M82.71 65.49s1.662-5.663 3.632-6.525c1.909-.923 2.955 0 2.955 0s.37-2.216 1.785-2.093c1.416.123 2.032 0 2.032 0s1.785-3.016 3.755-3.94c1.909-.923 2.832-3.385 3.632-1.97.801 1.416-.8 3.386-2.031 5.233-1.293 1.847-.493 6.833-.493 6.833s1.662-2.77 4.248-3.262c2.586-.554 2.031 1.723 0 4.186-2.032 2.462-2.586 7.203-8.003 9.172-5.417 1.97-10.034 4.618-10.034 4.618L79.323 67.03l3.386-1.54Z" fill="url(#paint5_linear_13135_31969)"/><path d="M90.159 98.364c1.662-10.65 12.928-17.545 15.759-23.024 0 0-1.169-5.663 0-10.465 1.17-4.802-1.169-4.31-.492-7.264.923-4.186 4.494.492 5.294 3.817.8 3.324 4.125 4.986 6.156 1.662 2.032-3.325 3.509-6.649 3.509-6.649s2.955 10.096.8 15.083c-2.154 4.986-3.816 2.832-7.633 13.912-3.817 11.081-5.972 21.424-13.728 24.009-7.757 2.586-11.143-1.662-9.665-11.08Z" fill="url(#paint6_linear_13135_31969)"/><path d="M25.088 116.649c-2.4-1.847 2.955-10.835.8-36.506-.984-11.758 3.817-21.362 9.296-27.148 5.48-5.787 4.31-1.847 4.31-1.847s-1.97.184-1.17 10.28 14.22 10.281 18.407 2.648c4.124-7.634 7.14-8.127 7.14-8.127l13.113 4.31s6.649 19.576 4.802 30.965c-1.847 11.45-9.419 12.435-7.633 22.039 1.846 9.603 1.17 11.45 1.17 11.45s-31.52 6.526-50.235-8.064Z" fill="#193963"/><path d="M67.626 81.62c-2.955-8.31-4.556-20.808 5.663-23.209 9.912-2.339 10.774 12.928 13.113 19.207 2.34 6.28 15.267 14.59 15.575 23.702.308 9.111-6.772 12.743-14.775 4.309-8.003-8.434-16.006-14.16-19.576-24.009Z" fill="url(#paint7_linear_13135_31969)"/><path d="M50.143 11.747c4.186-8.188 27.58-6.833 29.118.616 2.647 13.174-1.292 11.45 0 16.929.8 3.509 1.97 5.294.493 6.648-.37.37-1.97.986-1.97.986s-.493 2.277-2.155 5.294c-2.216 3.94-.43 5.54-2.462 5.787-2.093.246-17.484-.678-21.485-6.464-4.063-5.787-10.342-12.559-1.54-29.796Z" fill="url(#paint8_linear_13135_31969)"/><path d="M79.755 11.193s3.509 5.54 1.108 10.22c-2.401 4.678-10.896 8.002-10.896 8.002s-2.463 12.19-.247 18.961c2.216 6.71 3.57 10.035 3.57 10.035S61.718 71.338 48.606 70.353c-13.113-.985-13.667-10.896-11.327-20.192 2.339-9.295 6.648-8.803 7.018-21.053.307-12.251 5.602-26.04 18.837-25.856 13.236.185 16.622 7.941 16.622 7.941Z" fill="url(#paint9_linear_13135_31969)"/><defs><linearGradient id="paint0_linear_13135_31969" x1="27.8854" y1="56.641" x2="70.885" y2="56.641" gradientUnits="userSpaceOnUse"><stop offset="0.3989" stop-color="#F6B8B9"/><stop offset="1" stop-color="#F29A9C"/></linearGradient><linearGradient id="paint1_linear_13135_31969" x1="118.312" y1="40.9245" x2="104.448" y2="74.6111" gradientUnits="userSpaceOnUse"><stop stop-color="#0596DE"/><stop offset="0.0502994" stop-color="#0487CB"/><stop offset="0.1477" stop-color="#036EAD"/><stop offset="0.255" stop-color="#025A93"/><stop offset="0.3741" stop-color="#014A80"/><stop offset="0.5116" stop-color="#003F72"/><stop offset="0.6837" stop-color="#00396A"/><stop offset="1" stop-color="#003768"/></linearGradient><linearGradient id="paint2_linear_13135_31969" x1="107.047" y1="67.3317" x2="105.139" y2="73.2961" gradientUnits="userSpaceOnUse"><stop stop-color="#0596DE"/><stop offset="0.0502994" stop-color="#0487CB"/><stop offset="0.1477" stop-color="#036EAD"/><stop offset="0.255" stop-color="#025A93"/><stop offset="0.3741" stop-color="#014A80"/><stop offset="0.5116" stop-color="#003F72"/><stop offset="0.6837" stop-color="#00396A"/><stop offset="1" stop-color="#003768"/></linearGradient><linearGradient id="paint3_linear_13135_31969" x1="115.935" y1="42.6081" x2="115.332" y2="44.4915" gradientUnits="userSpaceOnUse"><stop stop-color="#0596DE"/><stop offset="0.0502994" stop-color="#0487CB"/><stop offset="0.1477" stop-color="#036EAD"/><stop offset="0.255" stop-color="#025A93"/><stop offset="0.3741" stop-color="#014A80"/><stop offset="0.5116" stop-color="#003F72"/><stop offset="0.6837" stop-color="#00396A"/><stop offset="1" stop-color="#003768"/></linearGradient><linearGradient id="paint4_linear_13135_31969" x1="25.208" y1="68.0227" x2="40.4271" y2="68.0227" gradientUnits="userSpaceOnUse"><stop offset="0.3989" stop-color="#F6B8B9"/><stop offset="1" stop-color="#F29A9C"/></linearGradient><linearGradient id="paint5_linear_13135_31969" x1="79.2982" y1="64.0644" x2="103.919" y2="64.0644" gradientUnits="userSpaceOnUse"><stop offset="0.3989" stop-color="#F6B8B9"/><stop offset="1" stop-color="#F29A9C"/></linearGradient><linearGradient id="paint6_linear_13135_31969" x1="106.067" y1="50.3014" x2="105.72" y2="112.491" gradientUnits="userSpaceOnUse"><stop offset="0.3989" stop-color="#F6B8B9"/><stop offset="1" stop-color="#F29A9C"/></linearGradient><linearGradient id="paint7_linear_13135_31969" x1="88.0357" y1="61.6788" x2="78.2632" y2="115.51" gradientUnits="userSpaceOnUse"><stop offset="0.3989" stop-color="#F6B8B9"/><stop offset="1" stop-color="#F29A9C"/></linearGradient><linearGradient id="paint8_linear_13135_31969" x1="45.6802" y1="27.0906" x2="80.4453" y2="27.0906" gradientUnits="userSpaceOnUse"><stop offset="0.3989" stop-color="#F6B8B9"/><stop offset="1" stop-color="#F29A9C"/></linearGradient><linearGradient id="paint9_linear_13135_31969" x1="49.4174" y1="89.6164" x2="66.2042" y2="-3.06101" gradientUnits="userSpaceOnUse"><stop stop-color="#BC6459"/><stop offset="1" stop-color="#DD918A"/></linearGradient></defs></svg>