<svg width="131" height="136" viewBox="0 0 131 136" fill="none" xmlns="http://www.w3.org/2000/svg"><path d="M65.55 123.917c32.31 0 58.501-26.192 58.501-58.5 0-32.309-26.192-58.5-58.5-58.5-32.309 0-58.5 26.191-58.5 58.5 0 32.308 26.191 58.5 58.5 58.5Z" fill="#F2FAFD"/><path d="M86.156 12.117h-72.54v96.786h72.54V12.118Z" fill="url(#paint0_linear_13135_32181)"/><path d="M38.38 22.062H19.79v.845h18.59v-.845Z" fill="#193963"/><path d="M38.38 24.142H19.79v.845h18.59v-.845Z" fill="#193963"/><path d="M38.38 26.288H19.79v.845h18.59v-.845Z" fill="#193963"/><path d="M60.872 90.313a17.32 17.32 0 0 0 2.275-9.296c0-.13-.13-.195-.26-.195-.325.065-.52.325-.52.715-.13.78.13 1.755.26 2.535.26 1.82.52 3.575.78 5.395.26 1.886.585 3.835.715 5.72.13 1.69.52 3.9-.39 5.395.065 0 .195 0 .26-.065-1.365-1.69-.975-4.03-.715-5.98.325-2.145.845-4.29 1.625-6.305h-.26l.975 2.73c.195.39.26 1.3.78 1.495.325.13.585-.064.78-.325.39-.715.65-1.56.91-2.34-.13 0-.26 0-.325-.065.065 1.17 1.365 1.365 2.275.975.78-.39 1.56-.974 2.275-1.495.845-.584 1.69-1.234 2.535-1.82.195-.13 0-.39-.195-.26-1.04.78-2.08 1.43-3.12 2.21-.455.325-.91.715-1.365.975-.65.326-2.015.65-2.08-.52 0-.195-.26-.26-.325-.065-.195.52-.39.975-.585 1.495-.065.195-.13.52-.26.716-.065.325-.26.26-.65 0a1.946 1.946 0 0 0-.26-.52l-1.17-3.12c-.065-.196-.26-.196-.26 0a44.94 44.94 0 0 0-1.755 7.215c-.26 1.884-.26 3.9.91 5.394.065.065.26.065.26-.065.715-1.234.585-2.73.52-4.03-.065-1.69-.26-3.38-.455-5.004l-.78-5.07c-.13-.65-1.105-5.33-.26-5.46a.898.898 0 0 0-.26-.196c.13 3.185-.65 6.306-2.21 9.1 0 .13.26.26.325.13Z" fill="#193963"/><path d="M27.655 56.058s-4.615 3.64-2.275 3.38c2.405-.26 6.175-4.29 5.265-2.535-.975 1.755-1.105 2.99.195 1.885 1.3-1.105 1.885-1.3 1.625-.65-.325.65.65.325.65.325s2.405-.91 2.08-.26c-.325.52-.52.52.13.52h2.08s-.195.195 1.755.195c1.885 0 2.73-.26 3.64-.26" stroke="#193963" stroke-width="0.5016" stroke-miterlimit="10"/><path d="M24.991 62.362s3.38-1.43 3.64-.91c.26.455-.325 1.105 1.105.975 1.43-.195 2.925-1.105 2.925-.455 0 .65.975.325.975.325h.78s1.43.195 1.885 0c.455-.195 1.3-2.275.455.65-.78 2.925-1.625.195 1.43-.65 2.99-.78 3.38.65 3.38.65s.325 0 .975-.195c.65-.195 1.3-.78 1.755-.195.455.65 1.755-.91 1.755-.91s.455.195 1.105.455c.65.325 1.105.325 1.105.325s.78.195 1.43.195c.65 0 1.3-.65 1.755-.26.455.325 1.625-1.755.78.78-.78 2.535-3.51 3.38-2.275 1.885 1.3-1.43 2.73-2.405 4.03-2.99 1.3-.65 1.625-.455 1.755.195.195.65.455.65 1.105.455.65-.195.195-.455.65-.195.455.325.65.325 1.105.325.455 0-1.885.91.455 0s4.03-6.11 2.405-3.38c-1.625 2.73-1.3 3.51.26 3.38" stroke="#193963" stroke-width="0.5016" stroke-miterlimit="10"/><path d="M24.47 67.627s4.29-2.99 4.16-3.51c-.194-.455-1.43-.195-2.534 1.3-1.105 1.495-.65 2.405 1.885 1.43 2.535-.975-1.105.195 1.3.65 2.405.455 3.38-.91 3.38-.455s-.78.26 1.105.455 1.105-.78 2.99-.26c1.885.455 2.925 0 2.925 0h1.3s-2.535-.195.78-.195c3.315 0 5.46-3.835 3.51-1.885-1.885 1.885-1.3 2.73.455 2.08l1.755-.65s2.405-1.885.975.975c-1.43 2.925-2.275.455 1.625-.455 3.835-.91 3.51.455 4.81.195 1.3-.26 1.3-1.625 1.885-.455.65 1.105.65.78 1.885.78 1.235 0 .975-.195 2.08-.195h2.405" stroke="#193963" stroke-width="0.5016" stroke-miterlimit="10"/><path d="M58.727 44.032s2.925-1.3 3.64-3.64c.78-2.405-1.755.455-2.08 4.03-.325 3.51-.78-1.43 2.99-2.08 3.835-.65-.455.975-.195 1.625s3.64-1.3 3.51-.455c-.195.78.455 1.105 2.535-.195s-.975-1.43-1.3-.325c-.325 1.105.65.78 2.99.325 2.405-.455 0 .325 1.43.325s4.94-2.21 4.16-1.105c-.78 1.105-.325 1.885.455 1.3.78-.65 2.535-2.405 2.535-1.56 0 .78-.455 1.3-.455 1.3" stroke="#193963" stroke-width="0.5016" stroke-miterlimit="10"/><path d="M101.301 77.83c0 .716.52 1.3 1.17 1.3h1.56c.65 0 1.17-.584 1.17-1.3l.065-27.624h-3.9l-.065 27.625Z" fill="url(#paint1_linear_13135_32181)"/><path d="M105.526 48.516c-.195.325.65.585.65.585v-2.795s.195.585-.65 2.21Z" fill="url(#paint2_linear_13135_32181)"/><path d="M105.071 36.035s1.95.91 1.95 3.25v13.78s-.325.196-.455.196-.455-.196-.455-.196v-14.69l-.975-.91-.065-1.43Z" fill="url(#paint3_linear_13135_32181)"/><path d="M105.591 35.97c0-.39-.585-1.754-1.365-1.754h-1.82c-.78 0-1.365 1.3-1.365 1.755v14.17h4.55V35.97Z" fill="url(#paint4_linear_13135_32181)"/><path d="M105.201 50.725h-3.835v-.585h3.835v.585Z" fill="url(#paint5_linear_13135_32181)"/><path d="M87.325 119.69s-6.5-12.155-9.555-15.275c-3.185-3.185-6.24-3.835-10.335-7.215C62.82 93.43 56.97 81.73 57.36 77.245c.325-4.42 18.395-14.17 20.67-13.975 2.275.195 2.925 3.25 3.64 5.525.715 2.21 9.36 20.735 10.985 22.425 2.47 2.47 13.845 16.12 13.845 16.12l-3.451 3.451a31.013 31.013 0 0 1-10.849 7.035l-4.875 1.864Z" fill="url(#paint6_linear_13135_32181)"/><path d="M42.54 84.851h25.48c.78 0 1.366-.585 1.366-1.365V26.351c0-.78-.585-1.365-1.365-1.365H42.54c-.78 0-1.365.585-1.365 1.365v57.135c.065.715.65 1.365 1.365 1.365Z" fill="url(#paint7_linear_13135_32181)"/><path d="M79.2 63.79s-2.99.586-8.124 5.006c-2.6 2.145-5.525-13.845-5.525-13.845s-1.43-8.515 3.185-4.225C73.35 54.95 75.56 61.97 79.2 63.79Z" fill="url(#paint8_linear_13135_32181)"/><path d="M42.15 86.476h26.325a2.469 2.469 0 0 0 2.47-2.47v-58.24a2.469 2.469 0 0 0-2.47-2.47H42.15a2.469 2.469 0 0 0-2.47 2.47v58.24a2.469 2.469 0 0 0 2.47 2.47Z" fill="url(#paint9_linear_13135_32181)"/><path d="m44.23 84.85 21.97.065a3.051 3.051 0 0 0 3.055-3.055l.065-53.69a3.051 3.051 0 0 0-3.055-3.055l-21.97-.065a3.051 3.051 0 0 0-3.055 3.055l-.13 53.69c.13 1.69 1.43 3.055 3.12 3.055Z" fill="url(#paint10_linear_13135_32181)"/><path d="m42.67 84.85 25.22.065c.844 0 1.43-.65 1.43-1.43l.064-56.94c0-.845-.65-1.43-1.43-1.43l-25.22-.065c-.845 0-1.43.65-1.43 1.43l-.065 56.94c0 .78.585 1.43 1.43 1.43Z" fill="url(#paint11_linear_13135_32181)"/><path d="M66.033 40.948 44.453 41l.072 28.86 21.58-.053-.072-28.86Z" fill="#fff"/><path d="m51.899 43.893-5.59.014v.26l5.59-.014v-.26Z" fill="#193963"/><path d="m51.899 44.544-5.59.014v.26l5.59-.014v-.26Z" fill="#193963"/><path d="m51.899 45.194-5.59.014v.26l5.59-.014v-.26Z" fill="#193963"/><path d="M58.658 64.244c.456-.845.715-1.82.65-2.73 0 0 0-.065-.065-.065-.13 0-.195.13-.195.26 0 .26.066.52.066.78.065.52.195 1.04.26 1.56.064.52.194 1.04.26 1.56 0 .26.065.52.065.78s0 .585-.195.845h.065c-.326-.455-.26-1.105-.26-1.625.13-.715.325-1.365.455-2.015h-.13c.13.26.194.455.26.78.065.195.13.39.26.455s.194 0 .26-.065c.13-.26.194-.455.325-.715h-.13c0 .325.454.39.715.26.26-.13.455-.26.65-.455.26-.195.455-.325.78-.52.065-.065 0-.13-.066-.065-.325.26-.715.455-1.04.78-.195.13-.26.26-.455.26-.194 0-.454 0-.454-.26 0-.065-.066-.065-.13 0a3.16 3.16 0 0 1-.196.455.493.493 0 0 1-.13.26c-.13.13-.194-.13-.26-.195-.13-.325-.26-.65-.325-.91 0-.065-.065-.065-.13 0-.26.715-.39 1.43-.52 2.145-.065.52-.13 1.17.26 1.56 0 .065.066 0 .066 0 .26-.39.194-.91.194-1.365 0-.52-.13-.975-.194-1.495-.066-.52-.196-.975-.26-1.495 0-.195-.26-1.43-.066-1.43l-.065-.065c.066.91-.194 1.885-.65 2.665.196.065.26.065.325.065Z" fill="#193963"/><path d="M47.869 55.145c-.065 0-.065-.065-.13-.065-.13-.26.65-.845.845-.975l.065.065c-.455.325-.845.845-.845.845h.195c.325-.065.845-.39 1.235-.65.26-.26.39-.26.455-.26.065.065 0 .13 0 .195-.26.39-.26.585-.26.65 0 0 .065 0 .195-.13.26-.26.455-.325.52-.26s.065.065 0 .195v.065h.13c.26-.13.585-.26.65-.13 0 0 .065.065 0 .13 0 .065-.065.065-.065.13h.845l-.065.065h.39c.325 0 .52-.065.715-.065.13 0 .26-.065.325-.065v.13c-.13 0-.26 0-.325.065-.195 0-.39.065-.78.065s-.52 0-.52-.065h-.585c-.13 0-.195 0-.195-.065s0-.065.065-.13c0 0 0-.065.065-.065-.065 0-.26.065-.52.195-.065 0-.195.065-.26 0s-.065-.065 0-.195v-.065c-.065 0-.195.065-.39.26-.13.065-.26.195-.325.13-.13-.13.065-.585.195-.78V54.3c-.065.065-.195.13-.26.195-.325.26-.845.65-1.235.715 0-.065-.065-.065-.13-.065Z" fill="#193963"/><path d="m47.933 55.99-.065-.13c.39-.194 1.04-.39 1.17-.26.065.066.065.13.065.196v.065s.065.065.26 0c.195 0 .325-.065.455-.13.195-.065.26-.13.325-.065 0 0 .065.065.065.13v.065c.065.065.195 0 .195 0h.26c.13 0 .455.065.52 0 .065 0 .13-.13.13-.195l.13-.13c.065 0 .065.065-.065.39.13-.065.195-.13.325-.13.39-.13.715-.13.845 0 .13.065.13.13.195.195.065 0 .13 0 .26-.065.065 0 .13-.065.195-.065.13-.065.26-.13.39.065h.065c.13 0 .26-.195.39-.325h.065s.195.065.325.13c.195.065.26.13.26.13s.26.065.39.065c.065 0 .13-.065.26-.065.13-.065.26-.13.325 0l.13-.065c.065-.065.13-.13.195-.065.065 0 .065.065 0 .26.13-.065.325-.195.39-.26.26-.13.325-.195.455-.13.065.065.13.13.13.195.065.13.065.195.325.13.065 0 .065-.065.065-.065s0-.065.065-.065.065 0 .13.065c.13.065.195.065.26.065h.13a.783.783 0 0 0 .325-.325c.065-.195.13-.39.325-.715.195-.26.195-.26.26-.26 0 0 .065 0 .065.065 0 .13-.195.585-.52.91v.195c.065.065.195.13.325.065v.13c-.26 0-.325 0-.39-.13 0-.065-.065-.065-.065-.13-.13.13-.26.195-.325.26-.195.065-.26.13-.325.13h-.065c0-.065 0-.065.065-.065h.065c-.065 0-.13-.065-.26-.13 0 0-.065.065-.13.065-.195.065-.325.065-.39-.195 0-.065-.065-.13-.065-.13-.065 0-.195 0-.39.13-.195.065-.325.195-.455.26-.195.52-.585.845-.78.845-.065 0-.13 0-.13-.065s0-.13.13-.26c.195-.26.39-.39.65-.585.065-.13.065-.26.065-.26h-.065a.493.493 0 0 1-.26.13c-.065-.065-.13 0-.26.065-.065.065-.195.065-.26.065-.195 0-.39-.065-.39-.065s-.195 0-.325-.13c-.13-.065-.26-.13-.325-.13-.065.065-.26.325-.455.325-.065 0-.13 0-.13-.065-.065-.13-.195-.065-.325 0 .065-.13 0-.13-.065-.13-.195.065-.325.065-.325.065h-.065v-.065s0-.065-.13-.195c-.13-.065-.325-.13-.845 0-.195.065-.26.13-.39.195-.065.195-.13.39-.26.39 0 0-.065 0-.065-.065s.065-.26.26-.325c.065-.13.065-.26.065-.26-.065.065-.13.13-.195.13-.195.065-.52 0-.585 0h-.26c-.065 0-.195.065-.325 0 0 0-.065-.065-.065-.13 0 0-.195.065-.26.065-.195.065-.325.13-.52.13s-.26 0-.26-.065c-.065-.065-.065-.13-.065-.195v-.13c.065.325-.39.455-.845.65Zm7.995.26c-.195.196-.325.26-.52.52-.065.066-.065.13-.065.13s.065 0 .13-.064c.065-.065.325-.26.455-.585Zm2.925-1.3s-.065.066-.065.13c-.13.196-.195.326-.26.39.26-.194.325-.39.325-.52Z" fill="#193963"/><path d="M47.74 57.551c.064-.13.13-.195.26-.325 0-.13.064-.26.194-.455.26-.325.585-.455.715-.455a.14.14 0 0 1 .13.13c.065.13-.39.455-.845.845.065.065.195.13.65-.065.195-.065.26-.13.26-.13h.065v.13h-.065c-.13.065-.13.13-.13.13s0 .065.26.13c.455.065.715-.065.845-.13.065-.065.13-.065.13-.065l.065.065v.065h.325c.26 0 .325 0 .39-.065.13-.065.195-.13.52 0 .52.13.845 0 .845 0h.065c0-.065.065-.065.585-.065.26 0 .52-.13.715-.26.065-.13.195-.26.26-.325.195-.195.26-.195.325-.195 0 0 .065 0 0 .065 0 .065-.26.26-.52.52-.065.13-.065.195-.065.26.065.065.195.065.39 0l.52-.195c.13-.065.325-.26.455-.195.065.065.065.195-.065.39.13-.065.26-.13.325-.13.78-.195.975-.065 1.17 0 .13.065.195.065.26.065.195-.065.26-.13.325-.195s.13-.13.195-.13.13.065.195.195c.13.26.13.26.325.26h1.56v.13h-1.56c-.26 0-.325 0-.39-.325-.065-.13-.065-.13-.13-.13l-.065.065a1.418 1.418 0 0 1-.325.26c-.195.065-.26 0-.325-.065-.195-.065-.325-.195-1.105 0-.195.065-.325.13-.455.195-.13.26-.26.39-.325.325-.065 0-.065-.065-.065-.065 0-.065.13-.26.325-.325v-.065c.195-.325.13-.39.13-.39s-.195.065-.325.195l-.52.195c-.26.13-.455.13-.52 0-.065-.065-.065-.13 0-.195-.195.13-.39.195-.65.195h-.26v.065h-.325c-.065 0-.325.13-.91 0-.26-.065-.325-.065-.39 0s-.195.13-.455.065h-.26c-.195 0-.195 0-.195-.065v-.065c-.13.065-.39.26-.91.13-.195-.065-.26-.13-.26-.195v-.065h-.065c-.39.13-.65.195-.78.065-.26.065-.39.13-.52.195Zm1.17-1.105c-.13 0-.39.13-.65.39-.13.13-.196.26-.196.325.52-.26.845-.65.845-.715Zm5.784 1.235-.13.13c.065-.065.13-.065.13-.13Zm-.715-.91s0 .065 0 0c0 .065 0 0 0 0Z" fill="#193963"/><path d="M58.27 50.986c0-.065 0-.195.064-.26v-.195c0-.13 0-.26.065-.26-.26.195-.39.26-.455.26v-.13s.26-.13.52-.325c.13-.52.39-.91.585-.975h.065c.065.065.065.13 0 .26-.13.325-.26.585-.52.78 0 .13-.065.26-.065.26.13-.26.39-.455.845-.585.39-.065.52-.065.52 0s-.065.13-.26.26c-.065.065-.325.195-.325.26s.325-.065.52-.13c.26-.13.39-.195.52-.13 0 0 .065.065 0 .13v.13s.13.065.325-.065a.198.198 0 0 1 0-.26c.065-.195.26-.26.455-.26.13 0 .26.065.26.13s-.065.195-.26.26c.13 0 .195-.065.26-.065l.26-.065c.325-.065.325-.065.39 0v.13h.065c.195 0 .52-.195.845-.26.325-.195.455-.195.52-.13s0 .13 0 .13c-.325.26-.325.39-.325.455.065 0 .13 0 .195-.065l.195-.195c.325-.325.52-.39.585-.39 0 0 .065.065.065.13 0 .26-.195.39-.195.39l-.065-.065s.13-.13.13-.325c-.065 0-.325.26-.455.325l-.195.195c-.13.13-.26.13-.26.065-.065-.065-.13-.26.065-.455-.065 0-.26.13-.325.13-.26.13-.585.325-.845.325-.13 0-.195 0-.195-.065v-.065c-.065 0-.13 0-.26.065l-.26.065c-.26.065-.39.13-.52.13-.26.13-.39.195-.52.13-.065-.065-.13-.13-.065-.26-.065 0-.26.065-.39.13-.325.13-.585.195-.65.065-.065-.13.13-.26.26-.325.065-.065.13-.13.195-.13-.065 0-.195 0-.39.065-.585.13-.845.52-.845.78h-.13Zm.78-1.82a1.362 1.362 0 0 0-.39.78c.194-.195.26-.325.39-.585v-.195Zm2.08.78c-.26 0-.39.065-.39.195v.13h.13c.064-.065.13-.065.26-.13.194-.13.194-.195.194-.195h-.195Z" fill="#193963"/><path d="M50.665 26.675h9.555c.715 0 1.235-.585 1.235-1.235v-.065c0-.715-.585-1.235-1.235-1.235h-9.555c-.715 0-1.235.585-1.235 1.235v.065c0 .65.585 1.235 1.235 1.235Z" fill="url(#paint12_linear_13135_32181)"/><path d="M77.64 93.625c-5.005-.65-10.27-6.63-11.18-10.27-.91-3.64-2.6-11.895-4.42-14.17-1.82-2.275-3.64-2.08-6.045-3.705-2.34-1.625-5.72-4.485-4.355-6.63 1.885-2.795 4.94-.455 8.84-.65 3.055-.195 12.805 9.62 15.86 11.635 3.055 2.08 13.65 16.51 13 18.07-.65 1.625-7.085 6.24-11.7 5.72Z" fill="url(#paint13_linear_13135_32181)"/><path d="m54.11 61.451 2.534-3.185s-2.275-1.43-3.9-.325c-1.69.975-.325 3.445 1.365 3.51Z" fill="#153961"/><path d="M82.84 112.476s6.63-6.89 20.345-9.295l3.64 4.16-3.032 3.032a32.996 32.996 0 0 1-11.845 7.601l-4.623 1.717-4.485-7.215Z" fill="url(#paint14_linear_13135_32181)"/><defs><linearGradient id="paint0_linear_13135_32181" x1="54.7696" y1="66.2798" x2="-33.856" y2="-38.3655" gradientUnits="userSpaceOnUse"><stop stop-color="#fff"/><stop offset="0.3743" stop-color="#F8F9FD"/><stop offset="0.7471" stop-color="#E8EBF7"/><stop offset="0.9247" stop-color="#CFD0E8"/><stop offset="1" stop-color="#BABADC"/></linearGradient><linearGradient id="paint1_linear_13135_32181" x1="108.888" y1="53.7905" x2="100.325" y2="69.6907" gradientUnits="userSpaceOnUse"><stop offset="0.3854" stop-color="#3AB7B1"/><stop offset="0.8844" stop-color="#00899E"/></linearGradient><linearGradient id="paint2_linear_13135_32181" x1="108.518" y1="46.0836" x2="105.504" y2="48.1681" gradientUnits="userSpaceOnUse"><stop stop-color="#fff"/><stop offset="0.0941728" stop-color="#F8F9FD"/><stop offset="0.2122" stop-color="#E8EBF7"/><stop offset="0.665" stop-color="#CFD0E8"/><stop offset="1" stop-color="#BABADC"/></linearGradient><linearGradient id="paint3_linear_13135_32181" x1="111.764" y1="33.8707" x2="100.398" y2="55.1003" gradientUnits="userSpaceOnUse"><stop stop-color="#fff"/><stop offset="0.0941728" stop-color="#F8F9FD"/><stop offset="0.2122" stop-color="#E8EBF7"/><stop offset="0.665" stop-color="#CFD0E8"/><stop offset="1" stop-color="#BABADC"/></linearGradient><linearGradient id="paint4_linear_13135_32181" x1="106.416" y1="35.9337" x2="100.07" y2="50.2566" gradientUnits="userSpaceOnUse"><stop offset="0.3854" stop-color="#3AB7B1"/><stop offset="0.8844" stop-color="#00899E"/></linearGradient><linearGradient id="paint5_linear_13135_32181" x1="110.168" y1="43.4088" x2="101.158" y2="52.6017" gradientUnits="userSpaceOnUse"><stop stop-color="#fff"/><stop offset="0.0941728" stop-color="#F8F9FD"/><stop offset="0.2122" stop-color="#E8EBF7"/><stop offset="0.665" stop-color="#CFD0E8"/><stop offset="1" stop-color="#BABADC"/></linearGradient><linearGradient id="paint6_linear_13135_32181" x1="62.865" y1="107.61" x2="121.157" y2="79.4281" gradientUnits="userSpaceOnUse"><stop stop-color="#B96459"/><stop offset="1" stop-color="#DB8F88"/></linearGradient><linearGradient id="paint7_linear_13135_32181" x1="59.4477" y1="10.6765" x2="50.4759" y2="96.9602" gradientUnits="userSpaceOnUse"><stop stop-color="#12B7D9"/><stop offset="0.7701" stop-color="#2890CF"/></linearGradient><linearGradient id="paint8_linear_13135_32181" x1="54.9129" y1="77.3975" x2="93.9151" y2="31.9087" gradientUnits="userSpaceOnUse"><stop offset="0.2336" stop-color="#B96459"/><stop offset="0.3713" stop-color="#C7766C"/><stop offset="0.538" stop-color="#D2847C"/><stop offset="0.7297" stop-color="#D98C85"/><stop offset="1" stop-color="#DB8F88"/></linearGradient><linearGradient id="paint9_linear_13135_32181" x1="59.9135" y1="8.39139" x2="50.9229" y2="99.2401" gradientUnits="userSpaceOnUse"><stop offset="0.1377" stop-color="#14427C"/><stop offset="0.9548" stop-color="#183962"/></linearGradient><linearGradient id="paint10_linear_13135_32181" x1="59.4605" y1="10.9711" x2="50.4065" y2="96.7728" gradientUnits="userSpaceOnUse"><stop stop-color="#12B7D9"/><stop offset="0.7701" stop-color="#2890CF"/></linearGradient><linearGradient id="paint11_linear_13135_32181" x1="55.8177" y1="19.4419" x2="54.5496" y2="108.501" gradientUnits="userSpaceOnUse"><stop stop-color="#fff"/><stop offset="0.0941728" stop-color="#F8F9FD"/><stop offset="0.2122" stop-color="#E8EBF7"/><stop offset="0.665" stop-color="#CFD0E8"/><stop offset="1" stop-color="#BABADC"/></linearGradient><linearGradient id="paint12_linear_13135_32181" x1="55.4729" y1="23.426" x2="55.4142" y2="27.2287" gradientUnits="userSpaceOnUse"><stop offset="0.1377" stop-color="#14427C"/><stop offset="0.9548" stop-color="#183962"/></linearGradient><linearGradient id="paint13_linear_13135_32181" x1="60.4169" y1="107.67" x2="77.498" y2="49.2793" gradientUnits="userSpaceOnUse"><stop stop-color="#B96459"/><stop offset="1" stop-color="#DB8F88"/></linearGradient><linearGradient id="paint14_linear_13135_32181" x1="132.475" y1="93.5434" x2="100.362" y2="161.14" gradientUnits="userSpaceOnUse"><stop offset="0.1377" stop-color="#14427C"/><stop offset="0.9548" stop-color="#183962"/></linearGradient></defs></svg>