<svg width="131" height="131" viewBox="0 0 131 131" fill="none" xmlns="http://www.w3.org/2000/svg"><path d="M65.505 118.268c29.134 0 52.751-23.618 52.751-52.75 0-29.134-23.617-52.751-52.75-52.751-29.134 0-52.751 23.617-52.751 52.75s23.617 52.751 52.75 52.751Z" fill="#F2FAFD"/><path d="M17.56 98.105s-.234 1.29-1.407 2.11c-2.168 1.465-3.106 2.168-3.106 3.106.059.997.293 1.172.293 1.172s2.227.997 4.396-.41c2.169-1.348 3.34-2.168 3.458-2.696.117-.469.117-2.579.117-2.579l-3.75-.703Z" fill="#183962"/><path d="M23.598 98.28s.293 2.814.117 3.459c-.234.996.118 2.11.118 2.11s.644 1.523 2.813 1.406c1.29-.058 1.817-1.7 1.817-1.7s0-1.992-.82-3.282l-.821-1.348-3.224-.644Z" fill="#183962"/><path d="M13.34 64.051s.117 3.751 1.055 10.199c.938 6.447 1.759 23.913 1.759 23.913s.879 2.403 3.516 1.817c2.696-.586 2.814-1.758 2.814-1.758s-1.114-9.143-1.524-16.939c-.352-7.15.058-13.012-.176-14.301-.469-2.696-7.444-2.93-7.444-2.93Z" fill="url(#paint0_linear_13135_31999)"/><path d="M23.89 63.876s-3.634-.938-3.634 2.052c0 2.989 2.58 13.305 2.755 19.693.176 6.33-.469 13.774-.469 13.774s4.513 2.11 5.568.293c1.055-1.758.41-16.763.235-21.862-.176-5.1.058-14.125-1.348-13.95-1.29.235-3.107 0-3.107 0Z" fill="url(#paint1_linear_13135_31999)"/><path d="M26 36.153s-1.642.82-2.58-3.927c-.41-1.934-2.05-1.113-2.578.293-.528 1.407-.235 2.696-1.348 3.4-1.173.703-.88.996-.118 2.051.762 1.055 3.81 2.169 3.81 2.169L26 36.153Z" fill="url(#paint2_linear_13135_31999)"/><path d="M28.872 69.268s.82-8.909-.352-13.539c-.996-3.868 1.231-10.784 1.466-12.543.234-1.758-.059-5.216-.059-5.216l-3.868-2.11s-2.58 2.813-3.927 3.458c0 0-3.107-.469-2.638-3.4l-4.982 1.524s-.469 6.565-.234 9.847c.234 3.34-1.407 6.916-1.641 9.202-.235 2.345.117 11.37.175 11.664.528 2.52 16.06 1.113 16.06 1.113Z" fill="url(#paint3_linear_13135_31999)"/><path d="M14.512 37.444s-1.759.586-3.165 2.989c-1.407 2.403-2.169 4.102-2.169 4.102l5.1 1.7c-.06 0 .937-8.674.234-8.791Z" fill="url(#paint4_linear_13135_31999)"/><path d="M14.337 48.168s-1.113 1.817-2.637 1.7c-1.524-.06-2.169.234-2.58-1.935-.41-2.168-.175-4.161-.175-4.161l5.392 4.396Z" fill="url(#paint5_linear_13135_31999)"/><path d="M30.28 47.054c0 .176-2.58 7.62-3.752 8.206-1.172.586-3.516-.176-5.158-1.348-1.64-1.172-6.623-4.806-6.623-4.806s-2.344-1.114-2.461-1.876c-.118-.762 12.718-2.344 13.832-1.582 1.172.761 4.161 1.406 4.161 1.406Z" fill="url(#paint6_linear_13135_31999)"/><path d="M30.045 37.97s-2.169.468-2.93 2.46c-.763 1.994-1.583 6.155-1.583 6.155l4.279 3.81c0 .058 5.333-9.554.234-12.426Z" fill="url(#paint7_linear_13135_31999)"/><path d="M26.703 49.986c.059-.118 1.23-2.52-.586-4.338-1.817-1.817-1.641-1.934-2.872-2.461-1.23-.528-4.748-1.993-4.748-1.993s-1.348-.762-2.579-1.055c-1.23-.293-6.154.176-6.27 1.7-.06 1.582-.235 2.05 1.171 3.692 1.348 1.7 4.279 2.403 5.1 3.165.82.762 8.791 5.158 10.784 1.29Z" fill="url(#paint8_linear_13135_31999)"/><path d="M15.567 39.963s.117-.352-.176-.703c0 0 .059-.176-.059-.294 0 0 0-.351-.175-.351a.743.743 0 0 1-.352-.117s.176-.235 0-.352c-.176-.117-.469.117-.586 0-.117-.117-.41-.586-.528-.938-.117-.352-.703-1.23-2.872-.645-2.168.587-2.403 1.934-2.227 2.93.117 1.056.176 2.052 1.641 2.521 1.465.47 5.451-.82 5.334-2.051Z" fill="url(#paint9_linear_13135_31999)"/><path d="M13.81 41.545s-.704-.352-1.583-.41c-.879 0-2.051.117-2.52-.235-.469-.352-1.055-.938-1.055-.938s-.703.293-.41 1.173c.293.879 1.055 1.055 1.172 1.582.117.528.88 4.924 3.4 5.158 2.52.234 3.516-.586 3.516-.586l-2.52-5.744Z" fill="url(#paint10_linear_13135_31999)"/><path d="M25.415 44.945s.586-.938-.938-1.758c-1.524-.88-1.934-.528-2.872-.997-.88-.527-4.338-2.227-5.275-2.403-.938-.176-2.169-.586-2.52 1.055-.352 1.641 1.992 6.682 2.05 7.854.06 1.172.294 3.165 2.11 4.279 1.818 1.113 2.99 2.93 3.752 3.047.762.118.762-1.406 1.172-3.047.47-1.642.704-6.389 2.52-8.03Z" fill="url(#paint11_linear_13135_31999)"/><path d="M12.343 40.842c.059.059.235.586-.234.645-.528 0-.47-.294-.762-.294-.235 0-.762-.234-.645-.586.117-.351.82-.82 1.641.235Z" fill="url(#paint12_linear_13135_31999)"/><path d="M10.292 42.66s-.351-.88-.879-1.231c-.527-.352-.879-.704-.879-.704l.117-1.524s.235-.586-.176-.703c0 0 .235-.352.118-.586-.118-.235-.293-.235-.293-.235s-.235.528-.352.762c-.117.235-1.055 1.7-.938 2.462.117.762 1.055 1.582 1.465 2.52.41.938.821 1.466 1.29 1.348.527-.117.82-1.875.527-2.11Z" fill="url(#paint13_linear_13135_31999)"/><path d="M23.362 24.195s-3.106-1.055-4.689.41c-1.582 1.466-1.465 1.876-1.758 2.99-.293 1.114-.645 1.172-.293 2.286.352 1.172.293 3.165.586 4.103.293.937.762.996.645 1.758l-.118.762s-.293.234.528.234c.82 0 1.758-.937 1.817-1.113.117-.176-1.465-4.806-1.465-4.806l4.747-6.623Z" fill="url(#paint14_linear_13135_31999)"/><path d="M25.356 30.29s.293 1.642-.645 3.107c-.938 1.465-2.051 2.462-2.872 2.579-.82.117-1.7-.235-1.993-.47-.293-.233-1.582-1.523-1.758-1.992-.176-.469-.352-1.641-.235-2.755.118-1.172-.351-1.934-.234-2.754.117-.82.762-2.814 2.637-3.283 1.876-.469 6.038.645 5.1 5.569Z" fill="url(#paint15_linear_13135_31999)"/><path d="M27.057 36.444c-.058.059-.762-.234-1.465.235-.703.468-1.817.937-2.227.234-.47-.703 0-1.934.41-2.93.41-.997.938-1.759.88-2.345-.06-.586-.47-1.172-.587-2.403-.117-1.23-.469-1.407-1.524-2.052-1.055-.644-1.348-.293-1.7-1.055-.351-.761-.41-1.875-.351-1.816.058.058 2.93-.997 4.454.996 1.524 1.993 1.7 2.227 1.934 4.337.235 2.11.587 1.583.704 2.638.117 1.055-.41 1.7-.352 2.52.059.703.176.762-.176 1.641Z" fill="url(#paint16_linear_13135_31999)"/><path d="M20.433 24.253s.234.762-.41 1.583c-.645.82-1.232.996-1.466 1.875-.293.88-.645.645-.645 2.404-.058 1.758-.469 1.7-.469 1.7s-.351-2.17-.176-3.224c.176-.997 1.114-3.283 1.173-3.283.058 0 1.992-1.055 1.992-1.055Z" fill="url(#paint17_linear_13135_31999)"/><path d="M21.605 32.459s-.117.058-.351.117c-.235.117-.352.234-.587.059-.234-.118-.293-.06-.41-.118-.117-.058-.352.176-.117.176.234 0 .527.293.762.235.234-.06 1.114-.293.703-.47Z" fill="url(#paint18_linear_13135_31999)"/><path d="M17.796 31.815s1.406.176 1.7.352c.175.117.878.059 1.582-.059.527-.117 1.993-.351 2.462-.351.41 0 1.055-.41 1.055-.41s0 .117.058.175v.235l-.82.41v1.641s-.176.469-.293.762c-.118.293-.235.645-.235.645s-.586.82-1.582.938c-1.055.058-1.466-.176-1.759-.41-.351-.294-1.524-1.29-1.875-2.11-.293-.88-.293-1.818-.293-1.818Z" fill="url(#paint19_linear_13135_31999)"/><path d="M102.549 99.217s-.41 1.759-.059 2.521c.059.234.118.351.176.469.059.175.235.293.41.351l1.935.059c.175 0 .293-.059.41-.117.117-.059.293-.118.645 0 .644.234 1.465.351 1.465.351s2.579.645 4.22 0c1.582-.644-.235-2.168-1.7-2.344-1.7-.176-3.341-1.114-3.399-2.052 0-.937-4.103.762-4.103.762Z" fill="url(#paint20_linear_13135_31999)"/><path d="m91.237 98.983-.528 2.344s-.175.411.528 1.583c.703 1.055.938.176 1.641 1.114.176.175.762 1.641 2.99 1.641.585 0 2.344.41 2.402-.997.059-.762-.82-1.524-1.817-1.934-.879-.41-1.406-2.11-1.465-3.751-.117-2.52-3.751 0-3.751 0Z" fill="url(#paint21_linear_13135_31999)"/><path d="M93.699 68.212s-.47 9.26-.88 12.543c-.41 3.282-.644 2.755-.761 4.454-.176 1.7-1.173 14.184-1.173 14.184s2.403 1.583 4.748.704c0 0 2.168-14.36 2.344-15.064.176-.703.235-2.989.528-4.454.293-1.465 4.044-14.887 4.044-14.887l-8.85 2.52Z" fill="#15427D"/><path d="M101.495 59.361s.175 18.521.234 21.687c.059 3.165-.234 2.696-.117 4.395.058 1.642.82 13.774.82 13.774s2.521 1.172 4.631 0c0 0 .117-14.067.176-14.77.058-.703-.176-2.872-.118-4.337.118-1.466.293-24.91.293-24.91l-5.919 4.161Z" fill="#15427D"/><path d="M101.962 33.747s.41.586.352 1.465c-.059.88-.176 1.934-.176 1.934h-4.162l-1.817-1.348s1.231-1.582.587-4.395c-.645-2.814 5.216 2.344 5.216 2.344Z" fill="url(#paint22_linear_13135_31999)"/><path d="M98.094 24.78s3.634-1.289 4.63 2.638c0 .117.059.235 0 .352-.058.234-.058.645 0 .82.176.293.352.587.469 1.055.059.47.176 1.114.176 1.642 0 .527.293 2.344-.293 2.578-.586.235-1.172.645-2.345.293-1.113-.351-3.165-.468-3.458-1.055-.293-.586-1.524-2.168-1.934-2.637-.469-.469-.762-5.04 2.755-5.685Z" fill="url(#paint23_linear_13135_31999)"/><path d="M97.214 31.695s.118-.175-.058-.937-.528-1.641-.528-1.641l.293.175-.469-.82s-.175-.82.176-1.29c.293-.468.47-.761.47-1.055 0-.293.527-.761.527-.761l-.235.527s.47-.293.586-.703c.118-.293.059-.293.059-.293l.176.527.234-.293c.118-.117.235-.293.352-.41l.059-.059a4.32 4.32 0 0 1 1.23 0l.587.059h.351l-.996-.528.527-.176s-.879-.234-1.23-.234c-.352 0-.704-.059-1.231.059-.528.175-1.524.293-2.11.703-.587.352-1.407 1.055-1.876 1.875-.176.294-.762.997-.762.997l.352-.235s-.059.235-.059.587c0 .351.293 2.696 1.348 3.399.938.645 2.227.527 2.227.527Z" fill="#15427D"/><path d="M97.507 32.457s-.175.528-.879.176c-.762-.351-1.582-.703-1.641-1.113-.059-.47-.234-1.348.528-1.29.703.059 1.992 1.524 1.992 2.227Z" fill="url(#paint24_linear_13135_31999)"/><path d="M96.804 34.04s3.458 1.642 5.451.939l.059.527 1.934.762 3.458 22.683-11.605 2.755-2.755-24.149 2.638-1.817.82-1.7Z" fill="#15427D"/><path d="M123.826 31.344c.058.176.117.352.058.586-.117.528-.644.762-1.524 1.583-.468.41-.41.527-.586 1.055-.175.469-.586.82-1.113.82-.469 0-.879-.469-.762-.938.351-1.817 1.231-5.685 1.934-5.685.762-.058 1.7 1.876 1.993 2.58Z" fill="url(#paint25_linear_13135_31999)"/><path d="M106.3 35.917s.469-.47 1.641 0c1.231.469 1.055.586 1.817.527.762-.058 2.344 0 2.344 0s2.872.88 3.986.762c1.114-.117 4.103-3.692 4.103-3.692l2.637 1.23c-.175 2.404-2.872 6.8-4.923 7.093-2.051.293-9.085 1.172-9.085 1.172l-2.52-7.092Z" fill="url(#paint26_linear_13135_31999)"/><path opacity="0.12" d="M106.3 35.917s.469-.47 1.641 0c1.231.469 1.055.586 1.817.527.762-.058 2.344 0 2.344 0s2.872.88 3.986.762c1.114-.117 4.103-3.692 4.103-3.692l2.637 1.23c-.175 2.404-2.872 6.8-4.923 7.093-2.051.293-9.085 1.172-9.085 1.172l-2.52-7.092Z" fill="url(#paint27_linear_13135_31999)"/><path d="M104.366 36.444s.352-1.055 1.524-.879c1.114.176 1.231 1.114 1.524 2.872.293 1.758 1.641 3.634 1.641 6.096 0 2.461-.82 8.967-.469 11.78.879 6.565 1.934 17.056 1.934 17.056l-4.22 1.583-1.348-24.09v-9.377l-.586-5.04Z" fill="url(#paint28_linear_13135_31999)"/><path opacity="0.12" d="M104.366 36.444s.352-1.055 1.524-.879c1.114.176 1.231 1.114 1.524 2.872.293 1.758 1.641 3.634 1.641 6.096 0 2.461-.82 8.967-.469 11.78.879 6.565 1.934 17.056 1.934 17.056l-4.22 1.583-1.348-24.09v-9.377l-.586-5.04Z" fill="url(#paint29_linear_13135_31999)"/><path d="M112.337 43.888s.704-2.52-.469-2.93c-1.113-.47-1.641-.586-1.641-.586s-.762 3.634 2.11 3.516Z" fill="url(#paint30_linear_13135_31999)"/><path d="M113.451 17.746s-5.041 20.69-5.627 21.51c0 0 10.374.293 10.902-.996 1.465-3.517 3.81-8.557 3.81-9.964s.527-9.612.527-9.612-2.286 1.113-9.612-.938Z" fill="url(#paint31_linear_13135_31999)"/><path d="M122.946 18.86s-3.399 1.113-9.202-.82l-5.333 20.982s9.671.352 10.257-.938c0 0 3.341-5.86 3.692-9.847.059-1.348.586-6.857.586-9.377Z" fill="url(#paint32_linear_13135_31999)"/><path d="M119.196 20.618s-1.935-.996-3.752.469c-1.816 1.465-4.102 6.096-4.395 10.198-.293 4.103 1.289 5.862 1.992 6.623.704.821 3.986.352 5.1-.351 1.113-.704 3.516-7.502 3.692-10.257.176-2.696.762-5.334-2.637-6.682Z" fill="url(#paint33_linear_13135_31999)"/><path opacity="0.12" d="M119.312 20.09s-2.051-1.054-3.927.47c-1.875 1.524-4.278 6.271-4.571 10.491-.293 4.22 1.348 5.979 2.11 6.8.762.82 4.161.35 5.392-.353 1.172-.703 3.692-7.736 3.868-10.55.176-2.813.704-5.45-2.872-6.857Z" fill="url(#paint34_linear_13135_31999)"/><path d="M117.379 21.146s-.704-.586-1.583.82c0 0-.469-.117-.586.47 0 0-.82.117-.996 1.7 0 0-.469.234-.704.937 0 0-.996.82-.82 1.817 0 0-.704.586-.352 2.051 0 0-1.231 1.348-.469 2.99 0 0-.586.996.117 2.168 0 0-.703.469.118 1.583 0 0-.059.937.937 1.465.997.469.997.586 1.466.586s.82 0 1.231-.996c.41-.997.586-1.466.586-2.052 0-.586-.352-1.348-.235-1.465.117-.117.704 1.817.997-1.348.351-3.165-.352-2.638-.235-3.048.117-.469.704-.117.938-.586.234-.469.117-1.934.469-2.286.352-.352.586-1.114.117-1.348-.469-.234-.469-.352-.469-.352s.469.235.704 0c.234-.351 1.817-4.454-1.231-3.106Z" fill="url(#paint35_linear_13135_31999)"/><path d="M117.32 37.38s.352.587.996-.703c0 0 .235.118.352-.41 0 0 .469-.058.762-1.582 0 0 .293-.176.469-.82 0 0 .645-.704.645-1.7 0 0 .469-.528.351-1.935 0 0 .821-1.23.528-2.813 0 0 .41-.938.117-2.11 0 0 .469-.41.059-1.524 0 0 .117-.88-.469-1.407-.528-.527-.528-.644-.821-.644-.293 0-.469-.06-.82.937-.352.997-.469 1.407-.528 1.934-.058.528.117 1.349 0 1.407-.058.117-.645-.82-.879.88-.41 3.047 0 2.637-.117 3.047-.117.41-.293.293-.469.762-.176.41 0 1.817-.235 2.11a1.282 1.282 0 0 0-.175.293c-.235.41-.352.88-.411 1.407 0 .059-.058.117-.058.176-.059.117-.059.176-.118.293-.175.469-.586 1.817-.761 1.993 0 .117-.352 1.524 1.582.41Z" fill="url(#paint36_linear_13135_31999)"/><path d="M115.444 22.669s.117.117 0 .586-.586.938-.586.938.703-.352.938-.235c.234.117.234.352.703.82.469.47.821.587.821.587s-.997-.703-1.231-1.407a.442.442 0 0 0-.411-.293c0-.117.059-.996-.234-.996Z" fill="url(#paint37_linear_13135_31999)"/><path d="M115.912 34.392s-.176.058-.527-.235c-.352-.293-.587-.879-.587-.879s0 .762-.175.938c-.176.176-.411.058-.997.293-.586.234-.879.469-.879.469s1.055-.586 1.817-.47c.176 0 .352-.058.41-.234 0-.058.762.47.938.118Z" fill="url(#paint38_linear_13135_31999)"/><path d="M117.495 21.615s-.117.703-.469.703h-.586s.997.117.997.586c.058.41.058-1.29.058-1.29Z" fill="url(#paint39_linear_13135_31999)"/><path d="M116.44 31.285s-.117.703-.469.703h-.586s.996.117.996.586c0 .47.059-1.29.059-1.29Z" fill="url(#paint40_linear_13135_31999)"/><path d="M116.5 36.385s.41-.352.586-.176.352.293.352.293-.528-.586-.294-.82c.176-.293-.644.703-.644.703Z" fill="url(#paint41_linear_13135_31999)"/><path d="M121.246 24.017s-.703.352-1.231.118c0 0-.234.351-.234.82s.703 1.7.703 1.7-.703-1.583-.352-1.934l1.114-.704Z" fill="url(#paint42_linear_13135_31999)"/><path d="M121.247 24.721s-.235.587-.586.587c0 0 0 .117.234.703v-.47c0-.058.352-.644.352-.82Z" fill="url(#paint43_linear_13135_31999)"/><path d="M113.158 27.064s.703.47.996 0c0 0 .821.704 1.231.235.469-.469.938-.997 1.231-.703.352.351.821.234.821.234s0 .469-.587.352c-.586-.118-.351-.352-1.113.234-.821.586-1.583 0-1.583 0s-.527.469-.996-.352Z" fill="url(#paint44_linear_13135_31999)"/><path d="M112.807 28.883s.351-.235.703-.235.352.235.82.235c.469 0 .587 0 .821-.235.234-.234.703-.469.703-.351 0 .117 0 .468-.469.586-.468.117-1.113.234-1.582 0-.469-.235-.996 0-.996 0Z" fill="url(#paint45_linear_13135_31999)"/><path d="M120.192 28.003c-.235-.352-.704-1.817-1.231-1.465-.586.351-.469.703-.469 1.113 0 .41-.352.82 0 1.114.059.058.176.117.234.176.352.117.645.351.88.644.058.059.175.117.351.117.469-.117.411-1.523.235-1.7Z" fill="url(#paint46_linear_13135_31999)"/><path d="M120.133 27.945c-.176-.294-.587-1.642-1.114-1.29-.528.293-.41.586-.41.996 0 .41-.293.704 0 .997.058.058.175.117.293.176.293.117.527.234.703.469.059.117.176.175.352.117.351-.059.293-1.231.176-1.465Z" fill="url(#paint47_linear_13135_31999)"/><path opacity="0.12" d="M120.368 25.893c-.704-.938-2.052-5.04-3.81-4.103-1.759.938-1.407 1.876-1.407 3.165 0 1.29-1.055 2.227 0 3.165.293.235.645.41.997.528.937.293 1.817.82 2.403 1.524.234.351.644.586 1.172.468 1.348-.293 1.055-4.161.645-4.747Z" fill="url(#paint48_linear_13135_31999)"/><path opacity="0.12" d="M112.045 31.754c.235 1.173-.117 5.451 1.817 5.275 1.993-.176 2.052-1.172 2.521-2.286.527-1.172 1.816-1.582 1.289-2.872a2.597 2.597 0 0 0-.703-.879c-.762-.644-1.348-1.465-1.583-2.403-.117-.41-.352-.762-.879-.879-1.289-.293-2.579 3.341-2.462 4.044Z" fill="url(#paint49_linear_13135_31999)"/><path d="M116.206 30.23c-.117-.527-.703-.878-1.231-.644-.117.059-.293.117-.469.235-.703.469-.82.117-1.23.234-.469.117-.997-.234-1.114.703-.059.294 0 .528 0 .704.059.352 0 .644-.059.996-.058.293-.058.645.176 1.055.586.938 2.169-.117 2.403-1.113.117-.88 1.641-1.231 1.524-2.17Z" fill="url(#paint50_linear_13135_31999)"/><path d="M116.089 30.289c-.117-.528-.644-.821-1.172-.645-.117.059-.293.117-.41.234-.645.41-.762.117-1.172.235-.411.117-.997-.235-1.055.645-.059.234 0 .468 0 .644.058.293.058.645-.059.938-.059.293-.059.645.176 1.055.527.88 2.051-.117 2.286-1.114.117-.82 1.582-1.113 1.406-1.992Z" fill="url(#paint51_linear_13135_31999)"/><path d="m118.609 29.938-.117.293c-.118.293.586.41.703.527.117.117.117.176.176.41.117.176.41.176.527.528.117.293.176.293.176.293s-.117-.528-.293-.703c-.176-.176-.293-.118-.293-.528 0-.352.117-.469.117-.527 0 0-.176.586-.703.175-.41-.293-.293-.468-.293-.468Z" fill="url(#paint52_linear_13135_31999)"/><path d="M119.84 22.786s0 .704-.235.82c0 0 .235-.116.469-.116.234 0 .821.234.821.234s-.235-.234 0-.469c0 0-.118.235-.469.117-.352-.117-.586-.586-.586-.586Z" fill="url(#paint53_linear_13135_31999)"/><path d="M113.919 25.247s.351 0 .586.351c.234.352.234.82.234.82s.586-.703.938-.585c.352.117.703-.235.996-.117 0 0-.234-.235-.703-.118 0 0-.352-.117-.703 0-.117.059-.176.059-.235.117-.117.06-.176-.058-.176-.117l.059-.762s-.234.47-.352.47c-.117 0-.293-.177-.644-.06Z" fill="url(#paint54_linear_13135_31999)"/><path d="M113.626 36.735s.235-.587-.234-.938c0 0 .586 0 .703-.586 0 0 .821 0 .996-.352l.821.117-.821.117s-.234.352-.82.47c0 0 0 .468-.469.351 0 .059.352.528-.176.82Z" fill="url(#paint55_linear_13135_31999)"/><path d="M118.55 36.149s-.293-.059-.41-.352c-.117-.293-.293-.469-.41-.703-.118-.235.058-.47.234-.528 0 0-.293-.234-.176-.41.117-.234-.234-.703-.234-.703s.41 0 .41-.352c0 0 0 .234-.059.528-.058.293 0 .351.059.586a.873.873 0 0 0 .352.351s-.528.059-.469.41c.058.352.469.938.703 1.173Z" fill="url(#paint56_linear_13135_31999)"/><path d="M118.902 34.276a.622.622 0 0 1 .117-.704c.117-.117.117-.293 0-.586-.352-.703-.586-.527-.586-.527s.469-.176.176-.47a1.968 1.968 0 0 1-.411-.585s.235.41.528.586a.323.323 0 0 1 .176.293v.117s.879 1.114.41 1.29c-.176.058-.293.234-.352.41l-.058.176Z" fill="url(#paint57_linear_13135_31999)"/><path d="M113.275 30.64s-.352-.351-.586.235c-.234.586-.352 1.23 0 1.465.352.235 1.934-.82.586-1.7Z" fill="url(#paint58_linear_13135_31999)"/><path d="M113.276 30.699s-.293-.293-.469.176-.293 1.055 0 1.23c.234.235 1.582-.644.469-1.406Z" fill="url(#paint59_linear_13135_31999)"/><path d="M122.946 28.883c.176-.293-.058-.703-.469-.645-.117 0-.234.06-.351.176-.528.352-.704.586-.528.88.176.234.997.117 1.348-.41Z" fill="url(#paint60_linear_13135_31999)"/><path d="M123.179 29.119s-.234-.118-.469 0c-.175.117-.762.586-1.113.82a.72.72 0 0 0-.293.586c0 .235.293.235.469.235.351 0 2.051-1.114 1.406-1.642Z" fill="url(#paint61_linear_13135_31999)"/><path d="M123.708 30.407h-.118c.235-.293.352-.587.118-.821 0 0-.235-.117-.469 0-.176.117-.762.586-1.114.82a.72.72 0 0 0-.293.587c0 .234.293.234.469.234h.117c-.058.117-.117.235-.117.352 0 .176.234.176.41.176.176 0 .293-.117.586-.41 0 .175.059.234.235.41.176.175.469.175.469-.176-.059-.41.117-1.055-.293-1.172Z" fill="url(#paint62_linear_13135_31999)"/><path d="M109.876 41.601s.586-.351.703-.703c.117-.41-.293-.703.41-1.582h1.524s.703.117 1.348 0c.586-.118.469-1.993.821-2.462.351-.469.527-.586.703-.586.176 0 0 .82 0 .82s.41-.117.469.293.117 1.876.117 1.876.528 1.055-.176 1.758c-.703.645-2.754 1.114-3.751 1.876-.996.703-1.875 1.29-1.875 1.29s-1.29-1.466-.293-2.58Z" fill="url(#paint63_linear_13135_31999)"/><path d="M95.748 36.387s-1.524.293-2.11.644c-.586.352-1.758.88-2.11 1.935-1.114 3.165.762 6.974.762 6.974s1.23 3.752.82 6.213c-.41 2.462-.058 4.279-.058 4.279s-1.114 4.923-1.348 11.722c-.117 3.282-.586 6.037-.586 6.037s7.15 1.934 11.253.88l2.169-.177s.586-21.803-.586-24.792c-.938-2.227-2.638-11.136-2.638-11.136l-5.568-2.58Z" fill="url(#paint64_linear_13135_31999)"/><path opacity="0.12" d="M95.748 36.387s-1.524.293-2.11.644c-.586.352-1.758.88-2.11 1.935-1.114 3.165.762 6.974.762 6.974s1.23 3.752.82 6.213c-.41 2.462-.058 4.279-.058 4.279s-1.114 4.923-1.348 11.722c-.117 3.282-.586 6.037-.586 6.037s7.15 1.934 11.253.88l2.169-.177s.586-21.803-.586-24.792c-.938-2.227-2.638-11.136-2.638-11.136l-5.568-2.58Z" fill="url(#paint65_linear_13135_31999)"/><path d="M102.373 35.507s.352.352 1.055 1.524c.996 1.641 1.582 14.946 1.582 14.946s1.055-12.25.762-13.07l-.996-.294.996-.879s-.586-1.758-1.465-1.934c-.879-.176-1.934-.293-1.934-.293Z" fill="url(#paint66_linear_13135_31999)"/><path d="m96.453 34.861 1.523 1.114c1.524 1.113 1.466 1.348 3.048 2.461 1.583 1.114 3.341 14.36 3.341 14.36l-4.279-11.84.938-.937-1.758.117-4.513-3.4c0-.175 1.7-1.875 1.7-1.875Z" fill="url(#paint67_linear_13135_31999)"/><path d="M91.003 40.488s.469-2.696 2.051-2.579c1.583.176 2.052 1.055 2.814 1.759.762.703.879 1.23 1.64 1.524.763.293 3.576 2.637 4.397 2.52.586-.059 8.381-3.4 8.381-3.4s.176 3.693 2.11 3.576c0 0-7.561 7.56-13.54 5.275-5.684-2.169-7.853-6.096-7.853-8.675Z" fill="url(#paint68_linear_13135_31999)"/><path d="m95.163 62.292 5.392 1.172s0 5.334-2.872 4.982c-2.872-.352-4.22-1.641-2.52-6.154Z" fill="url(#paint69_linear_13135_31999)"/><path d="M103.193 29.47s.059-.47-.117-.235c-.176.176-.234.117-.938.117-.41 0-2.344.586-2.579.645-.234.059-2.813 1.172-2.813 1.172l.234.293 2.403-.996.645 2.637-3.048-.293.176.293 2.989.352c.235.528.88 1.055 1.407.938 1.055-.117 1.524-.352 1.7-.645.293-.41.352-1.172.645-2.051.41-.938-.704-2.227-.704-2.227Z" fill="url(#paint70_linear_13135_31999)"/><path d="M88.128 100.157s.293 1.348 1.7 2.168c2.462 1.466 3.634 2.169 3.634 3.224 0 1.055-.293 1.231-.293 1.231s-2.462 1.114-4.982-.235c-2.462-1.348-3.868-2.168-3.986-2.696-.117-.527-.234-2.754-.234-2.754l4.161-.938Z" fill="#183962"/><path d="M92.64 45.296s.587 2.754.763 3.75c.176 1.056 6.33 6.507 4.982 7.679-1.934 1.64-8.206-5.217-8.323-5.979-.059-.762-.528-4.747-.528-4.747l3.107-.703Z" fill="url(#paint71_linear_13135_31999)"/><path d="M81.388 100.624s-.175 3.048 0 3.693c.294 1.055 0 2.286 0 2.286s-.644 1.641-3.106 1.641c-1.465 0-2.11-1.7-2.11-1.7s-.059-2.11.762-3.575l.88-1.465 3.575-.88Z" fill="#183962"/><path d="M86.72 38.438s.235-.234 1.818.235c.938.293 2.403.703 3.458 3.4.938 2.344 1.23 4.571 1.172 4.512-1.29-.527-4.396.704-4.396.704l-2.051-8.85Z" fill="url(#paint72_linear_13135_31999)"/><path d="M91.234 63.583s.059 3.986-.703 10.96c-.762 6.975-.88 25.614-.88 25.614s-.879 2.637-3.868 2.11c-3.048-.469-3.223-1.7-3.223-1.7s.82-9.788.879-18.17c.058-7.62-.704-13.832-.47-15.239.47-2.989 8.265-3.575 8.265-3.575Z" fill="url(#paint73_linear_13135_31999)"/><path d="M79.395 63.934s3.986-1.172 4.162 2.051c.176 3.165-2.227 14.36-2.169 21.1.059 6.8 1.172 14.712 1.172 14.712s-4.981 2.462-6.212.586c-1.29-1.875-1.231-17.876-1.29-23.327-.058-5.451-.762-15.063.82-14.946 1.583.117 3.517-.176 3.517-.176Z" fill="url(#paint74_linear_13135_31999)"/><path d="M88.245 38.672s3.927 5.568 3.107 8.264c-.82 2.697-1.407 5.627-1.407 5.627s.762 4.337 1.172 7.326c.47 3.224.645 6.506.645 6.506S85.725 68.33 81.68 68.33c-4.103 0-7.268-3.224-7.268-3.224s-.703-3.048.938-8.909c2.872-10.199-1.231-17.232-.47-17.408.763-.175 1.7-.527 3.049-.82 1.348-.293 3.165.293 4.688.058 3.459-.586 5.627.645 5.627.645Z" fill="url(#paint75_linear_13135_31999)"/><path d="M81.681 55.845s-2.93-2.579-4.572-3.4c-1.758-.879-2.461-.996-2.461-.996l1.406-5.51c1.524.704-4.161-3.223-4.278-.468-.118 2.051-1.759 7.62-1.114 8.44.645.82 2.051 1.641 4.806 2.286 2.403.527 4.982 1.23 4.982 1.23l1.231-1.582Z" fill="url(#paint76_linear_13135_31999)"/><path d="M76.112 47.815c-2.344-.175-1.7-.996-4.806-1.113l1.29-5.627c.644-2.93 4.22-2.579 4.571-1.348.528 2.227-1.055 8.088-1.055 8.088Z" fill="url(#paint77_linear_13135_31999)"/><path d="m77.871 38.144 7.21 3.4 1.289-3.282s-1.759-.118-1.524-3.927c.176-3.341-5.627-3.283-5.275-1.29.762 4.337-.235 4.69-1.7 5.1Z" fill="url(#paint78_linear_13135_31999)"/><path d="M83.849 36.093c1.055.058 2.461-2.814 2.286-4.396-.176-1.582.644-5.861-2.58-6.623-3.282-.762-5.392.996-5.509 2.93-.058 1.935 1.114 5.803 1.934 6.506.82.645 2.169 1.466 3.869 1.583Z" fill="url(#paint79_linear_13135_31999)"/><path d="m78.692 31.346.703.293s-.41-1.758-.351-2.637c.058-.88 2.168-.938 2.637-1.29.47-.351 1.29-1.523 1.29-1.523s1.172.41 1.64.586c.47.175 1.583 2.227 1.583 2.227s.059-1.524 0-1.993a9.854 9.854 0 0 0-.234-1.114l.293-.82s-.41.176-.762 0c-.352-.176-.645-.235-.645-.235l.293-.703s-.586.059-1.465-.176c-.88-.234-1.758-.469-2.462-.469-.644 0-1.055.176-1.055.176l.235-.703s-1.348 1.348-1.934 2.344c-.587.997-.528 1.7-.528 1.7l-.586.059s.234.527.117.879 1.231 3.4 1.231 3.4Z" fill="url(#paint80_linear_13135_31999)"/><path d="M79.043 31.17s-.47-1.172-.997-.879c-.527.352.059 1.465.352 1.817.293.352.41 1.348.88.938.468-.41-.235-1.876-.235-1.876Z" fill="url(#paint81_linear_13135_31999)"/><path d="m103.308 57.43-.352.761-21.276-2.344v-.587l14.946-1.289 6.682 3.458Z" fill="url(#paint82_linear_13135_31999)"/><path d="M84.377 32.636s-.117.352-.352.235c-.234-.059-.996.117-.996.117s.352.352.645.41c.293.059.644-.293.703-.762Z" fill="#EF9097"/><path d="m102.956 58.191-6.447-3.634-14.829 1.29 5.451 4.396 15.825-2.052Z" fill="url(#paint83_linear_13135_31999)"/><path d="M100.495 56.257c.527 0 .293-.293-.293-.762-.587-.469-.704-1.524-1.641-1.817-.938-.293-1.876-.293-2.345-.058-.527.234-.703.469-.703.469l1.113-.118s1.055 1.055 1.641.997c.821-.059.997 1.29 2.228 1.29Z" fill="url(#paint84_linear_13135_31999)"/><path d="M90.062 58.893s-1.523-1.7-2.051-1.875a5.815 5.815 0 0 1-.938-.41s-.176-.47-.351-.704c-.176-.176-.645-.234-.645-.234s.351.469.351.527c0 .176-.527-.469-.527-.469s-.234.352-.176.47c.469.527.82.527.82.527s-.058.469.177.82c.234.352 1.7 1.817 1.7 1.817l.234-.058-1.466-1.759-.058-.586 1.055.41 1.758 1.583.117-.059Z" fill="url(#paint85_linear_13135_31999)"/><path d="M92.466 58.483s-1.466-1.7-1.935-1.875c-.469-.176-.879-.41-.879-.41s-.176-.352-.41-.528c-.117-.176-.352-.293-.528-.235-.586.176-.937.41-.82.528 0 0 .82-.176.879-.176.059.059-.762.234-.762.293.293.235 1.114.235 1.114.235s-.059.468.117.82c.234.352 1.582 1.817 1.582 1.817l.235-.059-1.407-1.758-.058-.586.996.41 1.7 1.583.175-.059Z" fill="url(#paint86_linear_13135_31999)"/><path d="m96.274 58.542-1.934-2.754-.235-.059-.293-.469s-.234-.176-.352-.293h-.058s.058.293.234.469c.176.176.293.41.293.41l.059.235 2.227 2.578.059-.117Z" fill="url(#paint87_linear_13135_31999)"/><path d="m98.151 57.898-2.403-2.286h-.293l-.41-.41-.469-.235s.117.293.352.41c.176.117.352.352.352.352l.058.234 2.638 2.11.175-.175Z" fill="url(#paint88_linear_13135_31999)"/><path d="m99.85 58.132-2.403-2.286h-.293l-.41-.41-.059.059s-.234 0-.058.117c.176.117.352.351.352.351l.058.235 2.638 2.11.175-.176Z" fill="url(#paint89_linear_13135_31999)"/><path d="M96.334 55.553c.324 0 .586-.158.586-.352 0-.194-.262-.352-.586-.352-.324 0-.586.158-.586.352 0 .194.262.352.586.352Z" fill="url(#paint90_linear_13135_31999)"/><path d="M96.334 55.436c.26 0 .47-.132.47-.294 0-.161-.21-.293-.47-.293-.259 0-.469.132-.469.294 0 .161.21.293.47.293Z" fill="url(#paint91_linear_13135_31999)"/><path d="M91.82 56.258s-.235-.293-.293-.352a4.755 4.755 0 0 1-.352-.468l-.176-.176.117.762h.352l.176.293.176-.059Z" fill="url(#paint92_linear_13135_31999)"/><path d="M93.344 58.778c.176-.059-.117-.528-.352-.88-.234-.351-1.172-1.934-1.348-1.816-.234.175-.117.234 0 .586.176.351 1.524 2.168 1.7 2.11Z" fill="url(#paint93_linear_13135_31999)"/><path d="M92.877 56.316s-.176-.352-.234-.41a4.641 4.641 0 0 1-.235-.528c-.058-.176-.058-.235-.058-.235l.41.47.058.234.235.293-.176.176Z" fill="url(#paint94_linear_13135_31999)"/><path d="M94.284 58.895c.175 0-.06-.528-.176-.938-.176-.41-.88-2.11-1.114-1.993-.234.117-.176.176-.058.586.117.41 1.172 2.403 1.347 2.345Z" fill="url(#paint95_linear_13135_31999)"/><path d="m87.25 59.422 16.059-1.992-.352.761-15.825 2.052-4.454-3.517v-.762l4.571 3.458Z" fill="url(#paint96_linear_13135_31999)"/><path d="M80.684 55.084c.469-.118.82-.176 1.172-.118.469.059.82.293 1.23.47.704.35 1.349.585 1.935 1.289.586.703 1.641.996.938 1.23-.645.235-2.169-.761-2.403-.761l-.235-.06 3.106 2.462s-1.758.587-2.696.294c-.937-.293-1.875-.88-2.872-1.349-.703-.292-1.934-2.93-.175-3.457Z" fill="url(#paint97_linear_13135_31999)"/><path d="M86.194 31.346s-1.172-.352-1.348-.118c-.235.293-.47.352-1.466.293-.41-.058-2.051.352-2.285.41-.235.06-2.11-.878-2.11-.878l.117.234 1.817.938.117 1.993-1.758-1.055.058.293 1.758 1.113c.528.938 2.286 1.641 2.814 1.583 1.055-.117 1.465-.586 1.7-.88.293-.41.527-1.113.703-1.992.117-1.114-.117-1.934-.117-1.934Z" fill="url(#paint98_linear_13135_31999)"/><path d="m46.694 98.573.41 1.583c.118 1.113.118 2.168 1.348 3.458.587.586 1.349 1.641 2.11 2.11.938.644 3.224.058 3.634-.059.352-.117.235-1.465-.293-2.11-.351-.469-1.582-.586-2.168-1.231-.293-.293-1.29-1.641-1.466-2.696-.175-1.172-.058-.996-.058-.996l-3.517-.059Z" fill="url(#paint99_linear_13135_31999)"/><path d="M40.598 100.566s-.586 1.466-1.29 1.759c-.41.175-2.52 1.055-3.282 1.406-.468.235-.762.879-.762 1.114.118.586.645.703 2.52.82 1.876.118 6.507-2.051 6.565-2.344.118-.293.176-2.755.176-2.755h-3.927Z" fill="url(#paint100_linear_13135_31999)"/><path d="M36.789 63.874c0 .352.586 20.866.938 22.449.351 1.582 1.23 8.733 1.524 10.843.351 2.11.41 4.63.41 4.63s2.11.996 3.75.235c1.642-.704 1.466-1.7 1.466-1.7s-.879-4.338-.879-5.861c0-1.524-.41-24.09-.41-24.09s2.11 14.36 2.227 16.529c.117 2.168.293 10.315.117 11.84-.117 1.523 2.227 1.992 3.458 1.523 1.29-.527 1.407-1.172 1.407-1.23 0 0 .528-12.602.586-16.53.059-3.926-1.582-22.447-1.582-22.447l-9.906-1.29-3.106 5.1Z" fill="#183962"/><path d="m40.128 60.769 2.403 2.754.996-3.047 1.055 2.872 3.282-4.396-.996-17.994.293-5.1-1.758-.82-2.872 2.638-2.755-2.696-1.172.879 1.23 16.88.294 8.03Z" fill="url(#paint101_linear_13135_31999)"/><path d="M39.778 34.803c.234-1.113.469-2.578.352-3.399l4.747 1.114s.059 1.406.41 2.051l-2.285 3.048h-.938l-2.286-2.814Z" fill="url(#paint102_linear_13135_31999)"/><path d="m39.367 35.097 1.641 4.396 1.641-1.641 1.7 1.524 1.817-3.927-1.055-1.29-2.579 3.224-2.579-3.517-.586 1.23Z" fill="url(#paint103_linear_13135_31999)"/><path d="M39.367 35.097s-3.926 1.524-4.806 1.876c-.469.175-.351 6.506-.234 9.084.058.88.762 6.858.762 8.089 0 1.23-.938 29.247-.938 29.247s1.876.352 3.751.41c1.817.059 3.81-.293 3.81-.293s-.235-25.496-.176-27.196c.059-1.64-2.169-21.217-2.169-21.217Z" fill="url(#paint104_linear_13135_31999)"/><path d="M46.165 35.39c0 .233-.938 17.7-1.114 25.378-.175 7.678 2.052 22.917 2.052 22.917s2.696.234 4.513-.059c1.817-.293 2.169-.644 2.169-.644s-1.466-17.76-1.817-20.045c-.352-2.286-.82-16.998-.528-18.815.293-1.817.82-6.213.47-6.506-.411-.293-5.745-2.227-5.745-2.227Z" fill="url(#paint105_linear_13135_31999)"/><path d="m45.346 52.916 3.106-11.898-1.407-1.349 1.641.176v-3.34l-2.52-1.173-.82 17.584Z" fill="url(#paint106_linear_13135_31999)"/><path d="m41.359 53.208-4.22-11.957 1.523-1.23-1.816-.47.058-3.34 2.462-1.114 1.993 18.111Z" fill="url(#paint107_linear_13135_31999)"/><path d="M39.66 29.293s-.88-.586-.938 0c-.117.528.293 1.29.586 1.641.293.352 1.055.704 1.055.704s1.348 1.523 2.169 1.934c.879.41 1.758.469 2.637.117.88-.352.938-1.934 1.231-2.93.293-.997 0-1.759-.234-2.462-.235-.704.058-1.231-.117-1.759-.118-.586-.704-2.637-1.993-2.872-1.29-.293-3.634-.234-4.69 1.055-1.113 1.29.294 4.572.294 4.572Z" fill="url(#paint108_linear_13135_31999)"/><path d="M39.367 29.353s.293.176.47.527c.175.352.292.762.527.645.234-.117.117-1.465-.176-2.227-.293-.762-1.055-1.817-.645-2.345.469-.586.703-.117.938-.468.234-.41-.117-.645.586-.997.586-.293.762-.058 1.172 0 .41.059.82-.293.82-.293s.118.586.704.527c.586-.058.645-.644.645-.644s.527-.059.879.586.82 1.817.82 1.817l-.234-1.348s.176-.41 0-.762c-.117-.235-.645-.469-.645-.469s.41-.762.176-.996c-.234-.235-.703-.528-.996-.293-.293.234-.645-.293-1.231-.47-.586-.175-1.407.587-1.407.587s-1.055-.293-1.934 0c-.88.293-1.817 1.524-1.993 2.461-.176.938.235 2.462.47 3.048.234.528.468.82.468.82l.586.294Z" fill="#9B4C5D"/><path d="M30.342 45.12c.703-2.052 1.113-6.447 1.992-7.268.938-.82 2.462-1.23 2.462-.88 0 5.98-.352 11.196-.352 11.196s-3.34 3.458-4.513 2.696c-.879-.645-.175-3.927.41-5.744Z" fill="url(#paint109_linear_13135_31999)"/><path d="M42.474 55.493c0-.117-.644-13.305-.644-13.305l-7.678-1.114.703 12.66 7.62 1.759Z" fill="#183962"/><path d="M38.37 49.633c.234-.117.938-1.172 1.583-1.23.703-.118 1.582-.352 1.816-.294.294.06.47.118.528.352.059.352-.762.586-.762.586s1.29-.117 1.465.176c.176.235 0 .762-.351.82 0 0 .293.294.293.704-.059.352-.41.469-.41.469s.292.176.234.586c-.059.41-.293.469-.293.469s.293.645-.176.703c-.469.059-1.524.117-2.286.059-.762-.059-1.172-.41-1.582-.762-.352-.469-.059-2.638-.059-2.638Z" fill="url(#paint110_linear_13135_31999)"/><path d="M32.04 47.993c1.114-.176 3.283.469 3.928.703.82.352 2.755.293 2.755.293s-.176 2.403-.118 2.814c.059.41.41.82.41.82l-.058.82s-1.641-.058-2.696-.234c-1.055-.176-2.11.059-3.458-.234-1.407-.293-3.165-1.348-3.107-2.462.059-1.524-.058-2.11 2.345-2.52Z" fill="url(#paint111_linear_13135_31999)"/><path d="m56.598 63.406.41.703s1.056.176 1.642.645c.586.469 1.7.586 1.582 1.172-.058.586-1.407-.293-1.582-.058-.235.175.058 1.055.644 1.993.587.937 1.114 2.227.645 2.461-.293.176-1.875-2.755-1.875-2.755s.117.88.293 1.817c.117.645.351 1.993 0 1.993-.352-.058-.47-.176-.47-.176s.118.293-.292.293-.997-2.403-.997-2.403.235 1.642-.058 1.583c-.293-.059-.528 0-.645-.82-.117-.821-.88-2.287-1.055-3.635-.176-1.348-1.055-2.52-1.055-2.52l2.813-.293Z" fill="url(#paint112_linear_13135_31999)"/><path d="M53.668 64.93c.762 0 3.165-.469 3.751-1.993.235-.644-1.934-8.85-2.93-11.312-.997-2.403-.059-11.898-1.29-13.129-.82-.879-1.934-1.172-1.934-1.172s-.117 5.861.059 7.327c.175 1.7-.645 6.33-.352 7.678.234 1.406 2.696 12.601 2.696 12.601Z" fill="url(#paint113_linear_13135_31999)"/><path d="M43.88 30.349s.116.175.292 0c.176-.176.47.117.586 0 .176-.118.176-.294.352-.176.176.058.176-.176.059-.293-.117-.118-.117.41-.528.293-.41-.117-.762-.176-.762.176Z" fill="#E69E9E"/><path d="M44.875 30.641s-.645 0-1.172.176c-.47.176-1.114-.117-1.172.176 0 .352.117.996.234 1.465.117.47.293.997-.528.997 0 0 1.935.879 3.048.175 1.114-.703.762-1.465.762-1.465s.352-1.524.41-1.7c.06-.234-.468-.117-1.582.176Z" fill="#9B4C5D"/><path d="M44.993 31.111s-.645-.059-.996.117c-.352.176-.997-.351-.821.293.176.645.586.938.88.938.292 0 .41-.352.937-.352.527 0 .469.176.645-.117.176-.293.703-1.055.469-1.23-.235-.06-.82.292-1.114.351Z" fill="url(#paint114_linear_13135_31999)"/><path d="M46.4 28.59s-.938-.058-1.113.118c-.294.234-.235.469-1.055.352-.528-.06-2.462.41-2.697.468-.234.059-1.816.059-1.816.059l.117.235H41.3l.234 1.992-1.582-.469.176.294 1.465.586c.586.879 2.051 1.465 2.93 1.406 1.231-.117 1.466-.703 1.583-.996.235-.41.528-1.172.528-2.052a4.6 4.6 0 0 0-.235-1.992Z" fill="url(#paint115_linear_13135_31999)"/><path d="M51.673 107.481c.703-.703.527-1.758.527-1.758l3.341.235-.058 1.758s-1.29.058-2.052.176c-.762.117-2.11-.118-1.758-.411Z" fill="#994D5E"/><path d="M46.398 111.527c-.294-.938 3.047-1.641 4.513-3.282.351-.411.82-.938.82-.938s1.524.234 2.052.234c.586 0 1.64-.703 1.64-.703s.645 1.465.645 2.286c0 .82-1.523.703-3.282 1.524-2.93 1.348-5.685 3.165-6.389.879Z" fill="url(#paint116_linear_13135_31999)"/><path d="M56.069 109.241s0 1.699-.293 2.11c-.41.468-2.052.351-2.052.351l-.117-.644s-1.348.527-2.696 1.113c-1.524.645-4.748 1.172-5.451.293-.703-.879.645-1.524.645-1.524s1.23-.351 2.696-1.231c.469-.293.352.704 2.168.118 2.345-.704 2.52.469 2.697.469 1.7-.469 2.403-1.055 2.403-1.055Z" fill="#183962"/><path d="m66.444 105.665.234 2.52 3.282-.293-.351-2.696-3.165.469Z" fill="#994D5E"/><path d="m66.444 106.485-2.11-19.459-1.173-17.642-4.396 17.466-3.282 19.284c-2.344.234-3.282.117-3.282.117s-.176-15.943.88-22.917c1.816-12.192 3.809-23.797 3.809-23.68 0 .176 15.65.06 15.65.06l-1.173 25.964-1.583 20.514-3.34.293Z" fill="#15427D"/><path d="M69.845 60.944c-2.403 1.172-8.85 2.11-13.657.41 0 0 2.52-6.799 2.462-10.843-.059-4.044-.528-3.282-.234-8.499.234-5.216 1.055-7.267 1.055-7.267l10.901.351-.527 25.848Z" fill="#9B4C5D"/><path d="M61.814 20.972s-1.466-.176-2.638.996c-1.172 1.173-.293 6.74-.938 9.261l4.044-.703-.468-9.554Z" fill="#183962"/><path d="M61.227 31.52c.293.996.293 2.403-1.172 3.751-1.465 1.348 3.106 4.337 3.106 4.337s4.748-2.696 6.682-4.571c.762-.762-3.106-1.759-3.106-3.927 0-2.169-5.51.41-5.51.41Z" fill="url(#paint117_linear_13135_31999)"/><path d="M60.992 22.26c-1.641 1.817-1.993 3.165-1.817 4.63.176 1.466-.235 2.58.469 3.869.703 1.29 1.64 1.7 2.344 1.817.703.058 2.872-.528 3.868-2.169.938-1.641 1.407-1.172 1.524-3.751.118-2.579 0-4.572-2.52-5.04-2.52-.47-3.868.644-3.868.644Z" fill="url(#paint118_linear_13135_31999)"/><path d="M59.234 28.531s.996.176 1.23.352c.177.117.763.176 1.466.059.41-.06 1.934 0 2.169.058a.81.81 0 0 1 .41.117v.41l-.176-.117-.351 2.11.234-.058-.059.293s-1.406.527-2.461.41c-1.055-.117-1.055-.176-1.29-.469-.293-.352-.82-.82-.996-1.7-.235-.82-.176-1.465-.176-1.465Z" fill="url(#paint119_linear_13135_31999)"/><path d="M60.64 22.612c-.468-.762.294-2.813 1.349-2.637 1.055.175 3.048.293 4.513.996 1.465.703 3.517 1.29 3.34 3.986-.116 2.696 0 4.044-.233 4.806-.235.762-1.876 2.227-5.744 3.516 0 0 1.348-6.447.761-8.088-.586-1.641-3.985-2.579-3.985-2.579Z" fill="#183962"/><path d="M49.154 50.687c0 .762 4.162 3.81 5.686 3.986 1.524.175 3.223-1.407 3.223-1.407l1.349-18.521s-2.697.175-3.693 1.348c-.996 1.172-2.696 8.791-2.696 8.791s-1.876-1.055-2.403-.293c-.528.762-1.465 4.748-1.465 6.096Z" fill="url(#paint120_linear_13135_31999)"/><path d="M49.329 50.864s1.758-1.993 2.579-4.103c.82-2.11-.704-2.52-.704-2.52s-.762 1.289-1.465 3.399c-.703 2.11-.41 3.224-.41 3.224Z" fill="url(#paint121_linear_13135_31999)"/><path d="m50.912 48.693-2.403-2.813 1.817-1.934s1.64.762 1.758 1.23c.117.47-.059 1.407-.41 2.11a28.656 28.656 0 0 1-.762 1.407Z" fill="url(#paint122_linear_13135_31999)"/><path d="M60.817 34.158s-1.524 6.272-1.524 9.495c0 3.224-1.172 13.657-1.348 16.529-.176 2.813-1.055 18.638-1.407 18.814-.938.469-4.22-.176-4.22-.176s3.107-14.946 3.869-21.92c.761-6.975 1.055-7.855.468-10.433-.527-2.638 1.055-11.43 1.055-11.43l3.107-.879Z" fill="url(#paint123_linear_13135_31999)"/><path d="M68.67 33.866s-2.168 18.58-1.7 26.61c.47 7.971-.175 19.459-.175 19.459s4.923.41 9.436-.938c.41-.117-1.23-16.939-2.051-20.045-.88-3.106-1.29-10.198-.703-14.067.586-3.868.762-8.381.762-8.381l-5.569-2.638Z" fill="url(#paint124_linear_13135_31999)"/><path d="M68.847 51.39s-.997 1.993-.41 4.337c.586 2.345 1.758 2.286 2.403 2.228.644-.06 5.333-1.231 5.978-3.166.645-1.934-.41-6.037-.117-9.729.293-3.693.703-7.854-2.638-8.499-3.34-.703-2.051 11.957-2.051 11.957s-.762.059-.762 1.055l-2.403 1.817Z" fill="url(#paint125_linear_13135_31999)"/><path d="m67.204 49.75 4.045-8.616L69.9 39.96l1.759-.761-.47-4.338-3.047-1.582-.938 16.47Z" fill="url(#paint126_linear_13135_31999)"/><path d="m58.824 50.277-.938-10.14 1.349-.938-1.466-1.172.645-3.282s2.872-1.642 2.696-.997c-2.11 7.268-2.286 16.529-2.286 16.529Z" fill="url(#paint127_linear_13135_31999)"/><path d="m68.202 52.21-.879 2.286 2.696 1.173s.235-3.165-.586-3.283c-.879-.175-1.23-.175-1.23-.175Z" fill="url(#paint128_linear_13135_31999)"/><path d="M60.583 50.042c-.41.293.234.587.586.587s.88-.06 1.348-.118h.996s-1.934.762-2.637.82c-.703.06-.235.704.586.704 0 0-.762.176-.41.528.351.293.82.234 1.524.234.703 0 1.875.117 1.875.117s-.703.528-1.348.938c-.645.41-.938.586-.586.762.352.176.82-.117 1.524-.469.703-.352 2.93.645 3.458.235.469-.41.88-.88 1.055-1.876.059-.469.059-.527-.703-1.113-.762-.528-2.697-1.876-3.224-1.935-.527-.117-1.641-.117-2.403.059-.762.293-1.348.41-1.641.527Z" fill="url(#paint129_linear_13135_31999)"/><path d="M66.326 107.892s.996-.997 2.403-.762c1.406.234 1.582.938 1.582.938l.82 2.403s-.234 1.289-1.875 1.406c-1.582.118-2.755-.644-3.048-1.582-.234-.938.118-2.403.118-2.403Z" fill="url(#paint130_linear_13135_31999)"/><path d="M69.903 113.225c-1.348.176-3.224-.059-3.634-2.931l-.117-.762s.351-.293.879.587c.527.82 1.348-.176 2.227-.235.88-.058 1.29.176 1.465.235.235.058.059-1.055.059-1.055s1.23 1.817 1.114 2.52c-.176.703-.997 1.524-1.993 1.641Z" fill="#183962"/><path d="M51.322 44.533s-.47 1.817-2.228 2.11l-.586-.703s-2.52.234-3.165 0c-.644-.235-2.344-.117-2.227-.469.176-.352.645-.41.645-.41s-1.172-.176-1.524-.762c-.176-.235.176-.352.176-.352s-1.583-.293-.352-.938c0 0-1.29-.293-.586-.703.703-.41 1.582.176 3.165-.176 1.055-.234 1.758-.41 1.758-.41s-1.465-.645-1.524-1.348c-.058-.704.41-.528 1.466 0 .996.527 2.813.996 3.282 1.758.41.762.528 1.172.938 1.7.234.352.762.703.762.703Z" fill="url(#paint131_linear_13135_31999)"/><defs><linearGradient id="paint0_linear_13135_31999" x1="19.524" y1="103.061" x2="16.9244" y2="63.3805" gradientUnits="userSpaceOnUse"><stop stop-color="#fff"/><stop offset="0.5256" stop-color="#E5E9F4"/><stop offset="0.9977" stop-color="#BBBCDC"/></linearGradient><linearGradient id="paint1_linear_13135_31999" x1="28.7652" y1="118.58" x2="20.5091" y2="34.8775" gradientUnits="userSpaceOnUse"><stop stop-color="#fff"/><stop offset="0.5256" stop-color="#E5E9F4"/><stop offset="0.9977" stop-color="#BBBCDC"/></linearGradient><linearGradient id="paint2_linear_13135_31999" x1="22.3376" y1="39.1738" x2="22.3745" y2="33.0379" gradientUnits="userSpaceOnUse"><stop stop-color="#F3B4B6"/><stop offset="1" stop-color="#EF989B"/></linearGradient><linearGradient id="paint3_linear_13135_31999" x1="21.6642" y1="85.3402" x2="20.85" y2="3.62681" gradientUnits="userSpaceOnUse"><stop stop-color="#fff"/><stop offset="0.5256" stop-color="#E5E9F4"/><stop offset="0.9977" stop-color="#BBBCDC"/></linearGradient><linearGradient id="paint4_linear_13135_31999" x1="12.0358" y1="48.2173" x2="11.8235" y2="26.9126" gradientUnits="userSpaceOnUse"><stop stop-color="#fff"/><stop offset="0.5256" stop-color="#E5E9F4"/><stop offset="0.9977" stop-color="#BBBCDC"/></linearGradient><linearGradient id="paint5_linear_13135_31999" x1="11.76" y1="46.802" x2="6.36119" y2="46.8829" gradientUnits="userSpaceOnUse"><stop stop-color="#F3B4B6"/><stop offset="1" stop-color="#EF989B"/></linearGradient><linearGradient id="paint6_linear_13135_31999" x1="30.3084" y1="50.3729" x2="12.3154" y2="50.6426" gradientUnits="userSpaceOnUse"><stop stop-color="#F3B4B6"/><stop offset="1" stop-color="#EF989B"/></linearGradient><linearGradient id="paint7_linear_13135_31999" x1="28.9818" y1="53.4409" x2="28.6805" y2="23.2066" gradientUnits="userSpaceOnUse"><stop offset="0.045333" stop-color="#fff"/><stop offset="0.5256" stop-color="#E5E9F4"/><stop offset="0.9977" stop-color="#BBBCDC"/></linearGradient><linearGradient id="paint8_linear_13135_31999" x1="27.0933" y1="45.6895" x2="9.65237" y2="45.9509" gradientUnits="userSpaceOnUse"><stop offset="0.00903191" stop-color="#17B8DA"/><stop offset="0.9953" stop-color="#2491D0"/></linearGradient><linearGradient id="paint9_linear_13135_31999" x1="8.54224" y1="39.2852" x2="15.6095" y2="39.1793" gradientUnits="userSpaceOnUse"><stop stop-color="#A86969"/><stop offset="1" stop-color="#9B4C5D"/></linearGradient><linearGradient id="paint10_linear_13135_31999" x1="16.2489" y1="43.8641" x2="8.17944" y2="43.9851" gradientUnits="userSpaceOnUse"><stop offset="0.00903191" stop-color="#17B8DA"/><stop offset="0.9953" stop-color="#2491D0"/></linearGradient><linearGradient id="paint11_linear_13135_31999" x1="17.6367" y1="48.1895" x2="27.9463" y2="42.7129" gradientUnits="userSpaceOnUse"><stop offset="0.00903191" stop-color="#17B8DA"/><stop offset="0.9953" stop-color="#2491D0"/></linearGradient><linearGradient id="paint12_linear_13135_31999" x1="13.0536" y1="40.82" x2="10.1535" y2="40.8635" gradientUnits="userSpaceOnUse"><stop stop-color="#A86969"/><stop offset="1" stop-color="#9B4C5D"/></linearGradient><linearGradient id="paint13_linear_13135_31999" x1="10.3944" y1="41.2101" x2="7.02172" y2="41.2606" gradientUnits="userSpaceOnUse"><stop stop-color="#F3B4B6"/><stop offset="1" stop-color="#EF989B"/></linearGradient><linearGradient id="paint14_linear_13135_31999" x1="22.0589" y1="22.8815" x2="17.5451" y2="33.6738" gradientUnits="userSpaceOnUse"><stop stop-color="#FDD769"/><stop offset="1" stop-color="#F2A122"/></linearGradient><linearGradient id="paint15_linear_13135_31999" x1="21.4354" y1="34.1516" x2="21.6963" y2="21.0964" gradientUnits="userSpaceOnUse"><stop stop-color="#F3B4B6"/><stop offset="1" stop-color="#EF989B"/></linearGradient><linearGradient id="paint16_linear_13135_31999" x1="18.8443" y1="28.8972" x2="29.2107" y2="32.9186" gradientUnits="userSpaceOnUse"><stop stop-color="#FDD769"/><stop offset="1" stop-color="#F2A122"/></linearGradient><linearGradient id="paint17_linear_13135_31999" x1="18.9688" y1="26.2007" x2="17.6835" y2="32.5433" gradientUnits="userSpaceOnUse"><stop stop-color="#FDD769"/><stop offset="1" stop-color="#F2A122"/></linearGradient><linearGradient id="paint18_linear_13135_31999" x1="22.1981" y1="32.6823" x2="21.9375" y2="32.6862" gradientUnits="userSpaceOnUse"><stop stop-color="#EF989B"/></linearGradient><linearGradient id="paint19_linear_13135_31999" x1="21.3362" y1="30.9199" x2="20.6725" y2="36.0574" gradientUnits="userSpaceOnUse"><stop stop-color="#E7EBF5"/><stop offset="0.2817" stop-color="#DFE3F1"/><stop offset="0.7224" stop-color="#CACDE4"/><stop offset="1" stop-color="#BABBDB"/></linearGradient><linearGradient id="paint20_linear_13135_31999" x1="107.517" y1="106.085" x2="107.271" y2="99.1627" gradientUnits="userSpaceOnUse"><stop offset="0.00126075" stop-color="#A86969"/><stop offset="0.9974" stop-color="#9B4C5D"/></linearGradient><linearGradient id="paint21_linear_13135_31999" x1="94.429" y1="108.456" x2="94.4998" y2="101.132" gradientUnits="userSpaceOnUse"><stop stop-color="#A86969"/><stop offset="1" stop-color="#9B4C5D"/></linearGradient><linearGradient id="paint22_linear_13135_31999" x1="101.403" y1="45.1588" x2="98.4441" y2="31.6494" gradientUnits="userSpaceOnUse"><stop stop-color="#A86969"/><stop offset="1" stop-color="#9B4C5D"/></linearGradient><linearGradient id="paint23_linear_13135_31999" x1="101.995" y1="41.2204" x2="97.3149" y2="22.0711" gradientUnits="userSpaceOnUse"><stop stop-color="#A86969"/><stop offset="1" stop-color="#9B4C5D"/></linearGradient><linearGradient id="paint24_linear_13135_31999" x1="97.1028" y1="36.9334" x2="95.7445" y2="29.0396" gradientUnits="userSpaceOnUse"><stop stop-color="#A86969"/><stop offset="1" stop-color="#9B4C5D"/></linearGradient><linearGradient id="paint25_linear_13135_31999" x1="116.755" y1="47.1677" x2="123.894" y2="26.9015" gradientUnits="userSpaceOnUse"><stop stop-color="#A86969"/><stop offset="1" stop-color="#9B4C5D"/></linearGradient><linearGradient id="paint26_linear_13135_31999" x1="95.9319" y1="41.2523" x2="132.275" y2="35.6284" gradientUnits="userSpaceOnUse"><stop stop-color="#fff"/><stop offset="0.5298" stop-color="#E5E9F4"/><stop offset="1" stop-color="#BBBCDC"/></linearGradient><linearGradient id="paint27_linear_13135_31999" x1="104.698" y1="39.8958" x2="141.041" y2="34.2719" gradientUnits="userSpaceOnUse"><stop stop-color="#fff"/><stop offset="1" stop-color="#15427D"/></linearGradient><linearGradient id="paint28_linear_13135_31999" x1="113.917" y1="70.1312" x2="91.9189" y2="26.4908" gradientUnits="userSpaceOnUse"><stop stop-color="#fff"/><stop offset="0.5298" stop-color="#E5E9F4"/><stop offset="1" stop-color="#BBBCDC"/></linearGradient><linearGradient id="paint29_linear_13135_31999" x1="103.73" y1="34.4077" x2="111.334" y2="82.6838" gradientUnits="userSpaceOnUse"><stop stop-color="#fff"/><stop offset="1" stop-color="#15427D"/></linearGradient><linearGradient id="paint30_linear_13135_31999" x1="113.914" y1="47.1364" x2="109.308" y2="38" gradientUnits="userSpaceOnUse"><stop stop-color="#fff"/><stop offset="0.5298" stop-color="#E5E9F4"/><stop offset="1" stop-color="#BBBCDC"/></linearGradient><linearGradient id="paint31_linear_13135_31999" x1="114.788" y1="39.5162" x2="116.458" y2="15.1815" gradientUnits="userSpaceOnUse"><stop stop-color="#15427D"/><stop offset="1" stop-color="#1A3863"/></linearGradient><linearGradient id="paint32_linear_13135_31999" x1="117.51" y1="45.3211" x2="114.016" y2="14.0702" gradientUnits="userSpaceOnUse"><stop stop-color="#15427D"/><stop offset="0.0438114" stop-color="#2491D0"/><stop offset="0.8501" stop-color="#00568C"/><stop offset="1" stop-color="#1A3863"/></linearGradient><linearGradient id="paint33_linear_13135_31999" x1="106.433" y1="57.6838" x2="125.973" y2="2.21402" gradientUnits="userSpaceOnUse"><stop stop-color="#15427D"/><stop offset="0.8501" stop-color="#00568C"/><stop offset="1" stop-color="#1A3863"/></linearGradient><linearGradient id="paint34_linear_13135_31999" x1="106.165" y1="58.3006" x2="126.295" y2="1.15643" gradientUnits="userSpaceOnUse"><stop stop-color="#fff"/><stop offset="1" stop-color="#1A3863"/></linearGradient><linearGradient id="paint35_linear_13135_31999" x1="105.018" y1="57.6938" x2="123.339" y2="5.68534" gradientUnits="userSpaceOnUse"><stop stop-color="#15427D"/><stop offset="0.5179" stop-color="#2491D0"/><stop offset="1" stop-color="#1A3863"/></linearGradient><linearGradient id="paint36_linear_13135_31999" x1="126.966" y1="4.65136" x2="98.4098" y2="45.9767" gradientUnits="userSpaceOnUse"><stop stop-color="#15427D"/><stop offset="0.5179" stop-color="#2491D0"/><stop offset="1" stop-color="#1A3863"/></linearGradient><linearGradient id="paint37_linear_13135_31999" x1="113.254" y1="32.8254" x2="117.548" y2="20.6353" gradientUnits="userSpaceOnUse"><stop stop-color="#15427D"/><stop offset="0.5179" stop-color="#2491D0"/><stop offset="1" stop-color="#1A3863"/></linearGradient><linearGradient id="paint38_linear_13135_31999" x1="111.863" y1="32.2602" x2="118.829" y2="39.0721" gradientUnits="userSpaceOnUse"><stop stop-color="#15427D"/><stop offset="0.5179" stop-color="#2491D0"/><stop offset="1" stop-color="#1A3863"/></linearGradient><linearGradient id="paint39_linear_13135_31999" x1="116.38" y1="24.256" x2="119.212" y2="16.2177" gradientUnits="userSpaceOnUse"><stop stop-color="#15427D"/><stop offset="0.5179" stop-color="#2491D0"/><stop offset="1" stop-color="#1A3863"/></linearGradient><linearGradient id="paint40_linear_13135_31999" x1="115.351" y1="33.8351" x2="117.542" y2="27.6166" gradientUnits="userSpaceOnUse"><stop stop-color="#15427D"/><stop offset="0.5179" stop-color="#2491D0"/><stop offset="1" stop-color="#1A3863"/></linearGradient><linearGradient id="paint41_linear_13135_31999" x1="117.835" y1="35.7545" x2="114.203" y2="37.869" gradientUnits="userSpaceOnUse"><stop stop-color="#15427D"/><stop offset="0.5179" stop-color="#2491D0"/><stop offset="1" stop-color="#1A3863"/></linearGradient><linearGradient id="paint42_linear_13135_31999" x1="117.853" y1="32.1458" x2="121.48" y2="21.8514" gradientUnits="userSpaceOnUse"><stop stop-color="#15427D"/><stop offset="0.5179" stop-color="#2491D0"/><stop offset="1" stop-color="#1A3863"/></linearGradient><linearGradient id="paint43_linear_13135_31999" x1="119.925" y1="28.0812" x2="121.293" y2="24.1973" gradientUnits="userSpaceOnUse"><stop stop-color="#15427D"/><stop offset="0.5179" stop-color="#2491D0"/><stop offset="1" stop-color="#1A3863"/></linearGradient><linearGradient id="paint44_linear_13135_31999" x1="114.225" y1="30.0194" x2="118.038" y2="19.1956" gradientUnits="userSpaceOnUse"><stop stop-color="#15427D"/><stop offset="0.5179" stop-color="#2491D0"/><stop offset="1" stop-color="#1A3863"/></linearGradient><linearGradient id="paint45_linear_13135_31999" x1="113.199" y1="31.8718" x2="116.714" y2="21.8923" gradientUnits="userSpaceOnUse"><stop stop-color="#15427D"/><stop offset="0.5179" stop-color="#2491D0"/><stop offset="1" stop-color="#1A3863"/></linearGradient><linearGradient id="paint46_linear_13135_31999" x1="117.891" y1="32.412" x2="120.897" y2="23.878" gradientUnits="userSpaceOnUse"><stop stop-color="#15427D"/><stop offset="0.8501" stop-color="#00568C"/><stop offset="1" stop-color="#1A3863"/></linearGradient><linearGradient id="paint47_linear_13135_31999" x1="118.067" y1="31.878" x2="120.727" y2="24.3259" gradientUnits="userSpaceOnUse"><stop stop-color="#15427D"/><stop offset="0.6687" stop-color="#2491D0"/><stop offset="1" stop-color="#1A3863"/></linearGradient><linearGradient id="paint48_linear_13135_31999" x1="113.778" y1="38.0213" x2="122.022" y2="14.6171" gradientUnits="userSpaceOnUse"><stop stop-color="#fff"/><stop offset="1" stop-color="#1A3863"/></linearGradient><linearGradient id="paint49_linear_13135_31999" x1="122.992" y1="23.323" x2="105.96" y2="41.3665" gradientUnits="userSpaceOnUse"><stop stop-color="#fff"/><stop offset="1" stop-color="#1A3863"/></linearGradient><linearGradient id="paint50_linear_13135_31999" x1="111.158" y1="39.1505" x2="116.392" y2="24.2949" gradientUnits="userSpaceOnUse"><stop stop-color="#15427D"/><stop offset="0.8501" stop-color="#00568C"/><stop offset="1" stop-color="#1A3863"/></linearGradient><linearGradient id="paint51_linear_13135_31999" x1="111.302" y1="38.7792" x2="116.297" y2="24.6013" gradientUnits="userSpaceOnUse"><stop stop-color="#15427D"/><stop offset="0.6687" stop-color="#2491D0"/><stop offset="1" stop-color="#1A3863"/></linearGradient><linearGradient id="paint52_linear_13135_31999" x1="118.238" y1="34.0761" x2="121.374" y2="25.1741" gradientUnits="userSpaceOnUse"><stop stop-color="#15427D"/><stop offset="0.5179" stop-color="#2491D0"/><stop offset="1" stop-color="#1A3863"/></linearGradient><linearGradient id="paint53_linear_13135_31999" x1="120.455" y1="25.2633" x2="119.951" y2="20.7579" gradientUnits="userSpaceOnUse"><stop stop-color="#15427D"/><stop offset="0.0438114" stop-color="#2491D0"/><stop offset="0.5539" stop-color="#00568C"/><stop offset="1" stop-color="#1A3863"/></linearGradient><linearGradient id="paint54_linear_13135_31999" x1="115.5" y1="27.3056" x2="114.974" y2="22.6014" gradientUnits="userSpaceOnUse"><stop stop-color="#15427D"/><stop offset="0.0438114" stop-color="#2491D0"/><stop offset="0.5054" stop-color="#00568C"/><stop offset="1" stop-color="#1A3863"/></linearGradient><linearGradient id="paint55_linear_13135_31999" x1="114.985" y1="38.3658" x2="114.053" y2="30.0292" gradientUnits="userSpaceOnUse"><stop stop-color="#15427D"/><stop offset="0.1635" stop-color="#2491D0"/><stop offset="1" stop-color="#1A3863"/></linearGradient><linearGradient id="paint56_linear_13135_31999" x1="121.848" y1="40.6242" x2="114.323" y2="27.7599" gradientUnits="userSpaceOnUse"><stop stop-color="#15427D"/><stop offset="0.1635" stop-color="#2491D0"/><stop offset="1" stop-color="#1A3863"/></linearGradient><linearGradient id="paint57_linear_13135_31999" x1="122.646" y1="37.6884" x2="113.917" y2="27.266" gradientUnits="userSpaceOnUse"><stop stop-color="#15427D"/><stop offset="0.1635" stop-color="#2491D0"/><stop offset="1" stop-color="#1A3863"/></linearGradient><linearGradient id="paint58_linear_13135_31999" x1="112.147" y1="34.3248" x2="114.09" y2="28.808" gradientUnits="userSpaceOnUse"><stop stop-color="#15427D"/><stop offset="1" stop-color="#2491D0"/></linearGradient><linearGradient id="paint59_linear_13135_31999" x1="112.315" y1="33.8413" x2="113.961" y2="29.1668" gradientUnits="userSpaceOnUse"><stop stop-color="#15427D"/><stop offset="0.6687" stop-color="#2491D0"/><stop offset="1" stop-color="#1A3863"/></linearGradient><linearGradient id="paint60_linear_13135_31999" x1="123.075" y1="32.5513" x2="121.804" y2="26.7477" gradientUnits="userSpaceOnUse"><stop stop-color="#A86969"/><stop offset="1" stop-color="#9B4C5D"/></linearGradient><linearGradient id="paint61_linear_13135_31999" x1="120.69" y1="34.5491" x2="123.371" y2="26.9382" gradientUnits="userSpaceOnUse"><stop stop-color="#A86969"/><stop offset="1" stop-color="#9B4C5D"/></linearGradient><linearGradient id="paint62_linear_13135_31999" x1="121.909" y1="32.6237" x2="125.095" y2="28.2196" gradientUnits="userSpaceOnUse"><stop stop-color="#A86969"/><stop offset="1" stop-color="#9B4C5D"/></linearGradient><linearGradient id="paint63_linear_13135_31999" x1="112.642" y1="44.0606" x2="113.264" y2="34.9977" gradientUnits="userSpaceOnUse"><stop stop-color="#A86969"/><stop offset="1" stop-color="#9B4C5D"/></linearGradient><linearGradient id="paint64_linear_13135_31999" x1="104.621" y1="73.2496" x2="81.0413" y2="26.4723" gradientUnits="userSpaceOnUse"><stop stop-color="#fff"/><stop offset="0.5298" stop-color="#E5E9F4"/><stop offset="1" stop-color="#BBBCDC"/></linearGradient><linearGradient id="paint65_linear_13135_31999" x1="95.8946" y1="37.9305" x2="99.6969" y2="90.1766" gradientUnits="userSpaceOnUse"><stop stop-color="#fff"/><stop offset="1" stop-color="#15427D"/></linearGradient><linearGradient id="paint66_linear_13135_31999" x1="105.422" y1="48.6936" x2="102.515" y2="22.686" gradientUnits="userSpaceOnUse"><stop stop-color="#fff"/><stop offset="0.5298" stop-color="#E5E9F4"/><stop offset="1" stop-color="#BBBCDC"/></linearGradient><linearGradient id="paint67_linear_13135_31999" x1="105.042" y1="51.6388" x2="88.9472" y2="19.7099" gradientUnits="userSpaceOnUse"><stop stop-color="#fff"/><stop offset="0.5298" stop-color="#E5E9F4"/><stop offset="1" stop-color="#BBBCDC"/></linearGradient><linearGradient id="paint68_linear_13135_31999" x1="94.073" y1="35.1446" x2="134.983" y2="76.4762" gradientUnits="userSpaceOnUse"><stop stop-color="#fff"/><stop offset="0.5298" stop-color="#E5E9F4"/><stop offset="1" stop-color="#BBBCDC"/></linearGradient><linearGradient id="paint69_linear_13135_31999" x1="95.2966" y1="73.1643" x2="99.7385" y2="56.0956" gradientUnits="userSpaceOnUse"><stop stop-color="#fff"/><stop offset="0.5298" stop-color="#E5E9F4"/><stop offset="1" stop-color="#BBBCDC"/></linearGradient><linearGradient id="paint70_linear_13135_31999" x1="99.5393" y1="29.7984" x2="101.769" y2="34.5877" gradientUnits="userSpaceOnUse"><stop stop-color="#E7EBF5"/><stop offset="0.2817" stop-color="#DFE3F1"/><stop offset="0.7224" stop-color="#CACDE4"/><stop offset="1" stop-color="#BABBDB"/></linearGradient><linearGradient id="paint71_linear_13135_31999" x1="98.5447" y1="51.1366" x2="89.4807" y2="51.1366" gradientUnits="userSpaceOnUse"><stop offset="0.2053" stop-color="#F4AFB4"/><stop offset="1" stop-color="#EF9097"/></linearGradient><linearGradient id="paint72_linear_13135_31999" x1="89.0757" y1="32.5385" x2="90.7185" y2="51.2666" gradientUnits="userSpaceOnUse"><stop stop-color="#5DBDB5"/><stop offset="1" stop-color="#168398"/></linearGradient><linearGradient id="paint73_linear_13135_31999" x1="86.1675" y1="105.519" x2="87.1494" y2="63.0525" gradientUnits="userSpaceOnUse"><stop stop-color="#5DBDB5"/><stop offset="1" stop-color="#168398"/></linearGradient><linearGradient id="paint74_linear_13135_31999" x1="75.6562" y1="139.467" x2="80.6869" y2="49.7527" gradientUnits="userSpaceOnUse"><stop stop-color="#5DBDB5"/><stop offset="1" stop-color="#168398"/></linearGradient><linearGradient id="paint75_linear_13135_31999" x1="88.7687" y1="33.127" x2="73.5537" y2="87.2122" gradientUnits="userSpaceOnUse"><stop stop-color="#5DBDB5"/><stop offset="1" stop-color="#168398"/></linearGradient><linearGradient id="paint76_linear_13135_31999" x1="77.4039" y1="61.357" x2="73.9119" y2="43.4172" gradientUnits="userSpaceOnUse"><stop offset="0.2053" stop-color="#F4AFB4"/><stop offset="1" stop-color="#EF9097"/></linearGradient><linearGradient id="paint77_linear_13135_31999" x1="74.9786" y1="36.9007" x2="72.8015" y2="59.559" gradientUnits="userSpaceOnUse"><stop stop-color="#5DBDB5"/><stop offset="1" stop-color="#168398"/></linearGradient><linearGradient id="paint78_linear_13135_31999" x1="81.8976" y1="45.1114" x2="82.1815" y2="36.3104" gradientUnits="userSpaceOnUse"><stop offset="0.2053" stop-color="#F4AFB4"/><stop offset="1" stop-color="#EF9097"/></linearGradient><linearGradient id="paint79_linear_13135_31999" x1="87.263" y1="26.8373" x2="70.9308" y2="38.8517" gradientUnits="userSpaceOnUse"><stop offset="0.2053" stop-color="#F4AFB4"/><stop offset="1" stop-color="#EF9097"/></linearGradient><linearGradient id="paint80_linear_13135_31999" x1="82.2501" y1="22.0715" x2="81.7771" y2="27.9369" gradientUnits="userSpaceOnUse"><stop offset="0.00126075" stop-color="#A86969"/><stop offset="0.2445" stop-color="#A35D64"/><stop offset="0.632" stop-color="#9D505F"/><stop offset="0.9974" stop-color="#9B4C5D"/></linearGradient><linearGradient id="paint81_linear_13135_31999" x1="85.5507" y1="26.602" x2="71.4762" y2="36.9557" gradientUnits="userSpaceOnUse"><stop offset="0.2053" stop-color="#F4AFB4"/><stop offset="1" stop-color="#EF9097"/></linearGradient><linearGradient id="paint82_linear_13135_31999" x1="90.9214" y1="63.5488" x2="92.8235" y2="54.837" gradientUnits="userSpaceOnUse"><stop offset="0.0241726" stop-color="#fff"/><stop offset="0.26" stop-color="#E5E9F5"/><stop offset="1" stop-color="#B9B7DB"/></linearGradient><linearGradient id="paint83_linear_13135_31999" x1="92.456" y1="51.2143" x2="92.2149" y2="61.39" gradientUnits="userSpaceOnUse"><stop offset="0.0241726" stop-color="#fff"/><stop offset="0.26" stop-color="#E5E9F5"/><stop offset="1" stop-color="#B9B7DB"/></linearGradient><linearGradient id="paint84_linear_13135_31999" x1="98.1639" y1="52.3816" x2="98.1139" y2="62.6509" gradientUnits="userSpaceOnUse"><stop offset="0.0241726" stop-color="#fff"/><stop offset="0.26" stop-color="#E5E9F5"/><stop offset="1" stop-color="#B9B7DB"/></linearGradient><linearGradient id="paint85_linear_13135_31999" x1="87.4787" y1="45.6832" x2="87.8389" y2="56.0754" gradientUnits="userSpaceOnUse"><stop offset="0.0241726" stop-color="#fff"/><stop offset="0.26" stop-color="#E5E9F5"/><stop offset="1" stop-color="#B9B7DB"/></linearGradient><linearGradient id="paint86_linear_13135_31999" x1="89.7636" y1="45.5138" x2="90.1237" y2="55.9062" gradientUnits="userSpaceOnUse"><stop offset="0.0241726" stop-color="#fff"/><stop offset="0.26" stop-color="#E5E9F5"/><stop offset="1" stop-color="#B9B7DB"/></linearGradient><linearGradient id="paint87_linear_13135_31999" x1="94.4478" y1="45.5009" x2="94.8079" y2="55.8924" gradientUnits="userSpaceOnUse"><stop offset="0.0241726" stop-color="#fff"/><stop offset="0.26" stop-color="#E5E9F5"/><stop offset="1" stop-color="#B9B7DB"/></linearGradient><linearGradient id="paint88_linear_13135_31999" x1="95.9805" y1="45.3709" x2="96.3406" y2="55.7604" gradientUnits="userSpaceOnUse"><stop offset="0.0241726" stop-color="#fff"/><stop offset="0.26" stop-color="#E5E9F5"/><stop offset="1" stop-color="#B9B7DB"/></linearGradient><linearGradient id="paint89_linear_13135_31999" x1="97.8508" y1="46.5888" x2="98.1825" y2="56.1612" gradientUnits="userSpaceOnUse"><stop offset="0.0241726" stop-color="#fff"/><stop offset="0.26" stop-color="#E5E9F5"/><stop offset="1" stop-color="#B9B7DB"/></linearGradient><linearGradient id="paint90_linear_13135_31999" x1="96.2429" y1="52.5762" x2="96.3277" y2="55.0222" gradientUnits="userSpaceOnUse"><stop offset="0.0241726" stop-color="#fff"/><stop offset="0.26" stop-color="#E5E9F5"/><stop offset="1" stop-color="#B9B7DB"/></linearGradient><linearGradient id="paint91_linear_13135_31999" x1="96.3964" y1="54.6953" x2="96.1654" y2="56.3569" gradientUnits="userSpaceOnUse"><stop offset="0.0241726" stop-color="#fff"/><stop offset="0.26" stop-color="#E5E9F5"/><stop offset="1" stop-color="#B9B7DB"/></linearGradient><linearGradient id="paint92_linear_13135_31999" x1="91.0657" y1="45.8413" x2="91.4258" y2="56.2337" gradientUnits="userSpaceOnUse"><stop offset="0.0241726" stop-color="#fff"/><stop offset="0.26" stop-color="#E5E9F5"/><stop offset="1" stop-color="#B9B7DB"/></linearGradient><linearGradient id="paint93_linear_13135_31999" x1="92.0488" y1="45.8065" x2="92.409" y2="56.1988" gradientUnits="userSpaceOnUse"><stop offset="0.0241726" stop-color="#fff"/><stop offset="0.26" stop-color="#E5E9F5"/><stop offset="1" stop-color="#B9B7DB"/></linearGradient><linearGradient id="paint94_linear_13135_31999" x1="92.3575" y1="45.7237" x2="92.7176" y2="56.1171" gradientUnits="userSpaceOnUse"><stop offset="0.0241726" stop-color="#fff"/><stop offset="0.26" stop-color="#E5E9F5"/><stop offset="1" stop-color="#B9B7DB"/></linearGradient><linearGradient id="paint95_linear_13135_31999" x1="93.1816" y1="45.6952" x2="93.5419" y2="56.0885" gradientUnits="userSpaceOnUse"><stop offset="0.0241726" stop-color="#fff"/><stop offset="0.26" stop-color="#E5E9F5"/><stop offset="1" stop-color="#B9B7DB"/></linearGradient><linearGradient id="paint96_linear_13135_31999" x1="90.5339" y1="67.9611" x2="92.8797" y2="57.2176" gradientUnits="userSpaceOnUse"><stop offset="0.0241726" stop-color="#fff"/><stop offset="0.26" stop-color="#E5E9F5"/><stop offset="1" stop-color="#B9B7DB"/></linearGradient><linearGradient id="paint97_linear_13135_31999" x1="83.1851" y1="54.677" x2="82.9373" y2="64.7384" gradientUnits="userSpaceOnUse"><stop offset="0.0241726" stop-color="#fff"/><stop offset="0.26" stop-color="#E5E9F5"/><stop offset="1" stop-color="#B9B7DB"/></linearGradient><linearGradient id="paint98_linear_13135_31999" x1="81.5517" y1="29.7946" x2="84.4804" y2="36.0854" gradientUnits="userSpaceOnUse"><stop stop-color="#E7EBF5"/><stop offset="0.2817" stop-color="#DFE3F1"/><stop offset="0.7224" stop-color="#CACDE4"/><stop offset="1" stop-color="#BABBDB"/></linearGradient><linearGradient id="paint99_linear_13135_31999" x1="50.3853" y1="99.7898" x2="51.1198" y2="108.941" gradientUnits="userSpaceOnUse"><stop offset="0.261" stop-color="#994D5E"/><stop offset="0.6832" stop-color="#A8696A"/></linearGradient><linearGradient id="paint100_linear_13135_31999" x1="44.0387" y1="101.201" x2="35.1166" y2="105.738" gradientUnits="userSpaceOnUse"><stop offset="0.261" stop-color="#994D5E"/><stop offset="0.8613" stop-color="#A8696A"/></linearGradient><linearGradient id="paint101_linear_13135_31999" x1="37.1191" y1="49.2515" x2="55.3787" y2="49.2515" gradientUnits="userSpaceOnUse"><stop offset="0.00903191" stop-color="#17B8DA"/><stop offset="0.9953" stop-color="#2491D0"/></linearGradient><linearGradient id="paint102_linear_13135_31999" x1="42.4373" y1="41.8746" x2="42.5883" y2="30.5026" gradientUnits="userSpaceOnUse"><stop offset="0.4764" stop-color="#F5B6B7"/><stop offset="1" stop-color="#F1999B"/></linearGradient><linearGradient id="paint103_linear_13135_31999" x1="32.7392" y1="36.6794" x2="48.058" y2="36.6794" gradientUnits="userSpaceOnUse"><stop offset="0.00903191" stop-color="#17B8DA"/><stop offset="0.9953" stop-color="#2491D0"/></linearGradient><linearGradient id="paint104_linear_13135_31999" x1="37.3476" y1="9.20425" x2="37.9839" y2="86.8693" gradientUnits="userSpaceOnUse"><stop stop-color="#fff"/><stop offset="0.3865" stop-color="#EFF2F9"/><stop offset="0.5565" stop-color="#E7EBF5"/><stop offset="0.7876" stop-color="#E5E9F4"/><stop offset="0.8709" stop-color="#DFE2F0"/><stop offset="0.9302" stop-color="#D4D7EA"/><stop offset="0.9779" stop-color="#C4C6E1"/><stop offset="1" stop-color="#BABBDB"/></linearGradient><linearGradient id="paint105_linear_13135_31999" x1="46.6239" y1="27.1666" x2="51.3505" y2="86.8483" gradientUnits="userSpaceOnUse"><stop stop-color="#fff"/><stop offset="0.3865" stop-color="#EFF2F9"/><stop offset="0.5565" stop-color="#E7EBF5"/><stop offset="0.7663" stop-color="#E5E9F4"/><stop offset="0.8419" stop-color="#DFE2F0"/><stop offset="0.8957" stop-color="#D4D7EA"/><stop offset="0.939" stop-color="#C4C6E1"/><stop offset="0.9591" stop-color="#BABBDB"/></linearGradient><linearGradient id="paint106_linear_13135_31999" x1="39.4285" y1="40.875" x2="52.7825" y2="47.6249" gradientUnits="userSpaceOnUse"><stop offset="0.1277" stop-color="#fff"/><stop offset="0.3266" stop-color="#F8F9FC"/><stop offset="0.5888" stop-color="#E7EBF5"/><stop offset="0.7846" stop-color="#E5E9F4"/><stop offset="0.8551" stop-color="#DFE2F0"/><stop offset="0.9053" stop-color="#D4D7EA"/><stop offset="0.9457" stop-color="#C4C6E1"/><stop offset="0.9644" stop-color="#BABBDB"/></linearGradient><linearGradient id="paint107_linear_13135_31999" x1="36.4075" y1="28.4047" x2="42.1577" y2="58.8573" gradientUnits="userSpaceOnUse"><stop offset="0.1277" stop-color="#fff"/><stop offset="0.3266" stop-color="#F8F9FC"/><stop offset="0.5888" stop-color="#E7EBF5"/><stop offset="0.7846" stop-color="#E5E9F4"/><stop offset="0.8551" stop-color="#DFE2F0"/><stop offset="0.9053" stop-color="#D4D7EA"/><stop offset="0.9457" stop-color="#C4C6E1"/><stop offset="0.9644" stop-color="#BABBDB"/></linearGradient><linearGradient id="paint108_linear_13135_31999" x1="43.0763" y1="33.871" x2="41.8183" y2="22.4486" gradientUnits="userSpaceOnUse"><stop offset="0.4764" stop-color="#F5B6B7"/><stop offset="1" stop-color="#F1999B"/></linearGradient><linearGradient id="paint109_linear_13135_31999" x1="26.5434" y1="39.3577" x2="43.609" y2="52.6579" gradientUnits="userSpaceOnUse"><stop stop-color="#fff"/><stop offset="0.1792" stop-color="#F8F9FC"/><stop offset="0.4153" stop-color="#E7EBF5"/><stop offset="0.5418" stop-color="#E5E9F4"/><stop offset="0.5874" stop-color="#DFE2F0"/><stop offset="0.6198" stop-color="#D4D7EA"/><stop offset="0.6459" stop-color="#C4C6E1"/><stop offset="0.658" stop-color="#BABBDB"/></linearGradient><linearGradient id="paint110_linear_13135_31999" x1="49.4455" y1="56.8014" x2="34.2761" y2="45.987" gradientUnits="userSpaceOnUse"><stop offset="0.4764" stop-color="#F5B6B7"/><stop offset="1" stop-color="#F1999B"/></linearGradient><linearGradient id="paint111_linear_13135_31999" x1="33.8401" y1="44.2825" x2="34.4955" y2="53.6084" gradientUnits="userSpaceOnUse"><stop stop-color="#E7EBF5"/><stop offset="0.5212" stop-color="#E5E9F4"/><stop offset="0.7089" stop-color="#DFE2F0"/><stop offset="0.8427" stop-color="#D4D7EA"/><stop offset="0.9501" stop-color="#C4C6E1"/><stop offset="1" stop-color="#BABBDB"/></linearGradient><linearGradient id="paint112_linear_13135_31999" x1="57.0729" y1="71.3726" x2="56.987" y2="61.9278" gradientUnits="userSpaceOnUse"><stop offset="0.4764" stop-color="#F5B6B7"/><stop offset="1" stop-color="#F1999B"/></linearGradient><linearGradient id="paint113_linear_13135_31999" x1="46.4807" y1="36.6677" x2="59.8068" y2="65.3878" gradientUnits="userSpaceOnUse"><stop stop-color="#fff"/><stop offset="0.1748" stop-color="#F8F9FC"/><stop offset="0.4052" stop-color="#E7EBF5"/><stop offset="0.6966" stop-color="#E5E9F4"/><stop offset="0.8016" stop-color="#DFE2F0"/><stop offset="0.8764" stop-color="#D4D7EA"/><stop offset="0.9365" stop-color="#C4C6E1"/><stop offset="0.9644" stop-color="#BABBDB"/></linearGradient><linearGradient id="paint114_linear_13135_31999" x1="46.9639" y1="29.6474" x2="40.6467" y2="34.5754" gradientUnits="userSpaceOnUse"><stop offset="0.4764" stop-color="#F5B6B7"/><stop offset="1" stop-color="#F1999B"/></linearGradient><linearGradient id="paint115_linear_13135_31999" x1="42.2143" y1="28.2399" x2="45.2087" y2="33.6172" gradientUnits="userSpaceOnUse"><stop stop-color="#E7EBF5"/><stop offset="0.2817" stop-color="#DFE3F1"/><stop offset="0.7224" stop-color="#CACDE4"/><stop offset="1" stop-color="#BABBDB"/></linearGradient><linearGradient id="paint116_linear_13135_31999" x1="46.0419" y1="106.924" x2="54.6622" y2="111.432" gradientUnits="userSpaceOnUse"><stop stop-color="#E7EBF5"/><stop offset="0.5212" stop-color="#E5E9F4"/><stop offset="0.7089" stop-color="#DFE2F0"/><stop offset="0.8427" stop-color="#D4D7EA"/><stop offset="0.9501" stop-color="#C4C6E1"/><stop offset="1" stop-color="#BABBDB"/></linearGradient><linearGradient id="paint117_linear_13135_31999" x1="64.9505" y1="30.2097" x2="64.7601" y2="40.3484" gradientUnits="userSpaceOnUse"><stop offset="0.261" stop-color="#994D5E"/><stop offset="0.6788" stop-color="#A8696A"/></linearGradient><linearGradient id="paint118_linear_13135_31999" x1="63.3089" y1="37.5726" x2="63.2675" y2="24.5021" gradientUnits="userSpaceOnUse"><stop stop-color="#994D5E"/><stop offset="1" stop-color="#A8696A"/></linearGradient><linearGradient id="paint119_linear_13135_31999" x1="62.2455" y1="28.3608" x2="61.0781" y2="32.1454" gradientUnits="userSpaceOnUse"><stop stop-color="#E7EBF5"/><stop offset="0.2817" stop-color="#DFE3F1"/><stop offset="0.7224" stop-color="#CACDE4"/><stop offset="1" stop-color="#BABBDB"/></linearGradient><linearGradient id="paint120_linear_13135_31999" x1="51.6208" y1="35.4705" x2="59.3559" y2="56.5926" gradientUnits="userSpaceOnUse"><stop stop-color="#fff"/><stop offset="0.2082" stop-color="#F8F9FC"/><stop offset="0.4826" stop-color="#E7EBF5"/><stop offset="0.7271" stop-color="#E5E9F4"/><stop offset="0.8152" stop-color="#DFE2F0"/><stop offset="0.8779" stop-color="#D4D7EA"/><stop offset="0.9284" stop-color="#C4C6E1"/><stop offset="0.9518" stop-color="#BABBDB"/></linearGradient><linearGradient id="paint121_linear_13135_31999" x1="42.8705" y1="47.5519" x2="51.0954" y2="47.5519" gradientUnits="userSpaceOnUse"><stop stop-color="#E7EBF5"/><stop offset="1" stop-color="#BABBDB"/></linearGradient><linearGradient id="paint122_linear_13135_31999" x1="48.5335" y1="46.3196" x2="52.1091" y2="46.3196" gradientUnits="userSpaceOnUse"><stop offset="0.261" stop-color="#994D5E"/><stop offset="1" stop-color="#A8696A"/></linearGradient><linearGradient id="paint123_linear_13135_31999" x1="56.8197" y1="32.0361" x2="56.3065" y2="81.7922" gradientUnits="userSpaceOnUse"><stop offset="0.0287858" stop-color="#fff"/><stop offset="0.2563" stop-color="#F8F9FC"/><stop offset="0.5562" stop-color="#E7EBF5"/><stop offset="0.7623" stop-color="#E5E9F4"/><stop offset="0.8366" stop-color="#DFE2F0"/><stop offset="0.8895" stop-color="#D4D7EA"/><stop offset="0.932" stop-color="#C4C6E1"/><stop offset="0.9518" stop-color="#BABBDB"/></linearGradient><linearGradient id="paint124_linear_13135_31999" x1="71.9153" y1="29.6869" x2="71.5013" y2="80.0491" gradientUnits="userSpaceOnUse"><stop offset="0.0302648" stop-color="#fff"/><stop offset="0.1925" stop-color="#F8F9FC"/><stop offset="0.4063" stop-color="#E7EBF5"/><stop offset="0.7157" stop-color="#E5E9F4"/><stop offset="0.8272" stop-color="#DFE2F0"/><stop offset="0.9066" stop-color="#D4D7EA"/><stop offset="0.9704" stop-color="#C4C6E1"/><stop offset="1" stop-color="#BABBDB"/></linearGradient><linearGradient id="paint125_linear_13135_31999" x1="76.0693" y1="32.5847" x2="71.6854" y2="59.581" gradientUnits="userSpaceOnUse"><stop offset="0.0287858" stop-color="#fff"/><stop offset="0.2362" stop-color="#F8F9FC"/><stop offset="0.5096" stop-color="#E7EBF5"/><stop offset="0.7595" stop-color="#E5E9F4"/><stop offset="0.8496" stop-color="#DFE2F0"/><stop offset="0.9137" stop-color="#D4D7EA"/><stop offset="0.9652" stop-color="#C4C6E1"/><stop offset="0.9892" stop-color="#BABBDB"/></linearGradient><linearGradient id="paint126_linear_13135_31999" x1="61.8474" y1="36.8411" x2="76.6065" y2="47.815" gradientUnits="userSpaceOnUse"><stop offset="0.2742" stop-color="#fff"/><stop offset="0.3622" stop-color="#F8F9FC"/><stop offset="0.4781" stop-color="#E7EBF5"/><stop offset="0.5993" stop-color="#E5E9F4"/><stop offset="0.643" stop-color="#DFE2F0"/><stop offset="0.6741" stop-color="#D4D7EA"/><stop offset="0.699" stop-color="#C4C6E1"/><stop offset="0.7106" stop-color="#BABBDB"/></linearGradient><linearGradient id="paint127_linear_13135_31999" x1="67.2932" y1="38.6266" x2="55.4726" y2="43.8366" gradientUnits="userSpaceOnUse"><stop offset="0.2742" stop-color="#fff"/><stop offset="0.4708" stop-color="#F8F9FC"/><stop offset="0.73" stop-color="#E7EBF5"/><stop offset="0.8707" stop-color="#E5E9F4"/><stop offset="0.9214" stop-color="#DFE2F0"/><stop offset="0.9575" stop-color="#D4D7EA"/><stop offset="0.9865" stop-color="#C4C6E1"/><stop offset="1" stop-color="#BABBDB"/></linearGradient><linearGradient id="paint128_linear_13135_31999" x1="68.1211" y1="50.4819" x2="68.9984" y2="56.2781" gradientUnits="userSpaceOnUse"><stop offset="0.261" stop-color="#994D5E"/><stop offset="1" stop-color="#A8696A"/></linearGradient><linearGradient id="paint129_linear_13135_31999" x1="60.6669" y1="49.5811" x2="67.1271" y2="54.4833" gradientUnits="userSpaceOnUse"><stop stop-color="#fff"/><stop offset="0.1022" stop-color="#F7F8FC"/><stop offset="0.3417" stop-color="#E7EBF5"/><stop offset="0.5272" stop-color="#DFE3F1"/><stop offset="0.8173" stop-color="#CACDE4"/><stop offset="1" stop-color="#BABBDB"/></linearGradient><linearGradient id="paint130_linear_13135_31999" x1="64.6747" y1="107.475" x2="70.8717" y2="110.715" gradientUnits="userSpaceOnUse"><stop offset="0.1469" stop-color="#E7EBF5"/><stop offset="0.4405" stop-color="#E4E8F3"/><stop offset="0.6544" stop-color="#DBDFEE"/><stop offset="0.8425" stop-color="#CDCFE6"/><stop offset="1" stop-color="#BABBDB"/></linearGradient><linearGradient id="paint131_linear_13135_31999" x1="45.2145" y1="36.4208" x2="46.9402" y2="47.8216" gradientUnits="userSpaceOnUse"><stop stop-color="#fff"/><stop offset="0.1236" stop-color="#F7F8FC"/><stop offset="0.4131" stop-color="#E7EBF5"/><stop offset="0.5784" stop-color="#DFE3F1"/><stop offset="0.8371" stop-color="#CACDE4"/><stop offset="1" stop-color="#BABBDB"/></linearGradient></defs></svg>